<?xml version="1.0" encoding="UTF-8"?>
<svg id="Layer_2" data-name="Layer 2" xmlns="http://www.w3.org/2000/svg" viewBox="0 0 27.38 26.27">
  <defs>
    <style>
      .cls-1 {
        fill: none;
        stroke: #000;
        stroke-miterlimit: 10;
        stroke-width: .48px;
      }
    </style>
  </defs>
  <g id="p7">
    <g id="p7-2" data-name="p7">
      <g id="absorb">
        <g>
          <circle class="cls-1" cx="14.25" cy="13.13" r="10.34"/>
          <circle class="cls-1" cx="14.25" cy="13.13" r="12.89"/>
          <polygon points="1.36 13.13 0 15.33 3.21 15.05 1.36 13.13"/>
          <g>
            <line class="cls-1" x1="14.25" y1="19.39" x2="14.25" y2="22.26"/>
            <line class="cls-1" x1="14.25" y1="4.01" x2="14.25" y2="6.88"/>
          </g>
          <g>
            <line class="cls-1" x1="17.38" y1="18.55" x2="18.81" y2="21.04"/>
            <line class="cls-1" x1="9.69" y1="5.23" x2="11.12" y2="7.71"/>
          </g>
          <g>
            <line class="cls-1" x1="19.67" y1="16.26" x2="22.15" y2="17.7"/>
            <line class="cls-1" x1="6.35" y1="8.57" x2="8.83" y2="10"/>
          </g>
          <g>
            <line class="cls-1" x1="20.51" y1="13.13" x2="23.37" y2="13.13"/>
            <line class="cls-1" x1="5.12" y1="13.13" x2="7.99" y2="13.13"/>
          </g>
          <g>
            <line class="cls-1" x1="19.67" y1="10" x2="22.15" y2="8.57"/>
            <line class="cls-1" x1="6.35" y1="17.7" x2="8.83" y2="16.26"/>
          </g>
          <g>
            <line class="cls-1" x1="17.38" y1="7.71" x2="18.81" y2="5.23"/>
            <line class="cls-1" x1="9.69" y1="21.04" x2="11.12" y2="18.55"/>
          </g>
          <line class="cls-1" x1="14.25" y1="14.17" x2="14.25" y2="18.04"/>
          <circle class="cls-1" cx="14.25" cy="13.13" r="1.04"/>
        </g>
      </g>
    </g>
  </g>
</svg>