<?xml version="1.0" encoding="UTF-8"?>
<svg id="Layer_2" data-name="Layer 2" xmlns="http://www.w3.org/2000/svg" viewBox="0 0 45.64 35.81">
  <defs>
    <style>
      .cls-1 {
        fill: none;
        stroke: #000;
        stroke-miterlimit: 10;
        stroke-width: .48px;
      }
    </style>
  </defs>
  <g id="p7">
    <g id="p7-2" data-name="p7">
      <g id="rub_massage" data-name="rub&amp;amp;massage">
        <g>
          <path class="cls-1" d="M41.67,2.61l-6.95-2.36-13.86,4.67-6.56,3.57-3.81,3.02s.04.82,1.25.63c1.22-.2,6.17-3.1,6.17-3.1"/>
          <path class="cls-1" d="M19.62,6.7l-3.68,5.01-2.96,5.82s1.15.78,2.1.22"/>
          <path class="cls-1" d="M22.65,6.39l-4.57,5.45-3.64,7.29s.95.74,2.08.14"/>
          <path class="cls-1" d="M24.39,7.42l-4.61,5.22-3.26,6.63s1.62,1.39,2.74-.27c1.12-1.66,3.03-4.9,3.03-4.9l3.96-3.78,5.1-2.02"/>
          <path class="cls-1" d="M29.76,8.93s-.67,1.39-.98,1.72-3.8,3.15-4.16,3.57c-.36.43-1.19,2.2.54,2.76,0,0,5.8-4.36,7.06-5.13,1.26-.76,2.63-1.67,3.3-2.94.67-1.26,2.85-5.56,2.85-5.56"/>
          <line class="cls-1" x1="35.69" y1="8.61" x2="41.67" y2="12.5"/>
          <path class="cls-1" d="M29.28,23.59s-5.54.85-9.07,4.11l-6.36.55s-3.37.4-3.96,1.95c-.33.88.27,1.43.27,1.43,0,0,4.81-.3,9.11,0s5.19.24,5.19.24c0,0,4.86-1.04,6.23-1.34l13.81,5.05"/>
          <path class="cls-1" d="M10.12,29.78l-2.01-.77L.84,24.53s.43-1.34,2.22-.82c1.8.52,6.46,3.2,6.46,3.2,0,0,2.88-.15,4.8.52"/>
          <path class="cls-1" d="M17.56,22.64s-2.77,2.3-3.44,5.58"/>
          <path class="cls-1" d="M2.21,23.59l-1.89-1.73s.91-1.26,2.62-.65c1.71.61,7.13,3.68,7.13,3.68,0,0,3.18.19,4.94.84"/>
          <path class="cls-1" d="M3.37,21.39s-.53-1.48,1.33-1.37,6.64,3.38,6.64,3.38c0,0,3.23.19,4.69.72"/>
          <path class="cls-1" d="M7.47,21.05s-.42-1.54,1.65-1.04c2.07.5,4.08,2.05,4.08,2.05,0,0,3.59.34,4.35.58,0,0,9.04-1.24,11.79-1.09s16.23,4.14,16.23,4.14"/>
          <path class="cls-1" d="M19.6,22.38s-.12,1.44-1.06,1.74c-.93.29-1.24.89-.89,1.48.45.76,1.84.3,2.63.14s1.76-1.03,2.71-1.33c.93-.29.1-1.88-.71-1.38-1.12.7-2.44.78-1.75-.77"/>
        </g>
      </g>
    </g>
  </g>
</svg>