<?xml version="1.0" encoding="UTF-8"?>
<svg id="Layer_2" data-name="Layer 2" xmlns="http://www.w3.org/2000/svg" viewBox="0 0 31.84 29.44">
  <defs>
    <style>
      .cls-1 {
        fill: none;
        stroke: #000;
        stroke-miterlimit: 10;
        stroke-width: .48px;
      }
    </style>
  </defs>
  <g id="p7">
    <g id="p7-2" data-name="p7">
      <g id="apply">
        <g>
          <g>
            <path class="cls-1" d="M22.6,13.1c2.13-.76,3.67-1,3.92-.51.4.78-2.65,3.13-6.8,5.25-4.16,2.12-7.85,3.2-8.25,2.42-.25-.49.85-1.59,2.72-2.87"/>
            <line class="cls-1" x1="11.46" y1="20.25" x2="16.09" y2="29.33"/>
            <line class="cls-1" x1="26.51" y1="12.58" x2="31.62" y2="22.61"/>
            <path class="cls-1" d="M11.8,12.7l2.86,5.62s.82-.11,4.33-1.9c3.51-1.79,4.15-2.42,4.15-2.42l-3.4-6.68c-.38-.75-1.29-1.06-2.05-.7l-9.7,4.64,1.2,2.35,5.46-1.89"/>
          </g>
          <g>
            <line class="cls-1" x1="8.95" y1=".11" x2="12.13" y2="6.35"/>
            <polyline class="cls-1" points="7.57 5.86 12.13 6.35 14.22 2.47"/>
          </g>
          <path class="cls-1" d="M6.52,15.88s-1.91,3.35-1.59,4.73c.33,1.46,2.66,1.32,2.91,0s-1.31-4.73-1.31-4.73Z"/>
          <path class="cls-1" d="M1.87,19.73S-.04,23.08.27,24.46c.33,1.46,2.66,1.32,2.91,0s-1.31-4.73-1.31-4.73Z"/>
        </g>
      </g>
    </g>
  </g>
</svg>