<?xml version="1.0" encoding="UTF-8"?>
<svg id="Layer_2" data-name="Layer 2" xmlns="http://www.w3.org/2000/svg" viewBox="0 0 23.18 36.27">
  <defs>
    <style>
      .cls-1 {
        fill: #b5b2b1;
      }

      .cls-1, .cls-2, .cls-3, .cls-4, .cls-5, .cls-6 {
        stroke-linecap: round;
        stroke-linejoin: round;
      }

      .cls-1, .cls-4, .cls-5, .cls-6 {
        stroke: #231f20;
      }

      .cls-1, .cls-6 {
        stroke-width: .3px;
      }

      .cls-7, .cls-2, .cls-3, .cls-4, .cls-5, .cls-6 {
        fill: none;
      }

      .cls-2 {
        stroke-width: .71px;
      }

      .cls-2, .cls-3 {
        stroke: #6d6e70;
      }

      .cls-3 {
        stroke-width: .82px;
      }

      .cls-4 {
        stroke-width: .5px;
      }

      .cls-5 {
        stroke-width: .6px;
      }
    </style>
  </defs>
  <g id="p9">
    <g id="p9-2" data-name="p9">
      <g id="rub_massage" data-name="rub&amp;amp;massage">
        <g id="icon_step2">
          <g>
            <g>
              <path class="cls-4" d="M19.14,17.55c-1.01,4.41-2.74,7.38-5.2,8.9-1.48.92-3.35.92-4.84,0-2.46-1.52-4.2-4.49-5.2-8.9"/>
              <path class="cls-4" d="M19.38,16.44c2.21.6,1.45,3.28-.68,2.98"/>
              <path class="cls-4" d="M18.56,16.56c-.27-.71-.15-5.92-2.86-7.34-.33,1-1.02,2.58-5.15,2.58s-4.65,1.47-5.06,2.29c-.53,1.06-.32,1.82-1.01,2.74"/>
              <path class="cls-4" d="M3.66,16.44c-2.21.6-1.45,3.28.68,2.98"/>
              <path class="cls-4" d="M3.34,16.55C.92,8.09,6.43,3.61,11.52,3.61c5.09,0,10.6,4.48,8.18,12.93"/>
              <path class="cls-4" d="M15.61,4.61c0-.09,0-.17,0-.26,0-2.27-1.84-4.1-4.1-4.1s-4.1,1.84-4.1,4.1c0,.09,0,.17,0,.26"/>
              <path class="cls-5" d="M6.87,15.68c.53-.3,1.82-.36,2.46,0"/>
              <path class="cls-5" d="M6.87,17.13c.53.52,1.82.59,2.46,0"/>
              <path class="cls-5" d="M13.79,17.13c.53.52,1.82.59,2.46,0"/>
              <path class="cls-4" d="M12.32,20.13c-.35.41-1.13.43-1.53,0"/>
              <path class="cls-5" d="M16.24,15.68c-.53-.3-1.82-.36-2.46,0"/>
              <path class="cls-6" d="M13.58,22.02c-.93.59-2.98.63-4.05,0"/>
              <path class="cls-4" d="M6.81,24.35c0,.85-.03,2.04-.05,3.13-.04,1.64-1.14,3.06-2.57,3.57l-3.94,1.17"/>
              <path class="cls-4" d="M16.23,24.35c0,.85.03,2.04.05,3.13.04,1.64,1.14,3.06,2.71,3.53l3.94,1.17"/>
            </g>
            <path class="cls-4" d="M19.14,17.55c-1.01,4.41-2.74,7.38-5.2,8.9-1.48.92-3.35.92-4.84,0-2.46-1.52-4.2-4.49-5.2-8.9"/>
            <g>
              <polyline class="cls-2" points="15.05 21.29 14.33 20.74 14.09 21.56"/>
              <polyline class="cls-2" points="16.46 19.22 17.34 19.2 17.03 18.44"/>
              <path class="cls-3" d="M14.36,20.88c.15.68.7,1.22,1.38,1.36"/>
              <path class="cls-3" d="M17.26,19.12c-.31-.26-.72-.42-1.16-.42-.85,0-1.55.59-1.74,1.37"/>
            </g>
            <g>
              <polygon class="cls-7" points="18.29 20.29 14.87 25.78 16.5 31.18 18.7 28.03 18.29 20.29"/>
              <path class="cls-4" d="M19.07,25.08c.42-.33,1.64-.38,1.33.15-.23.38-1.24,1.18-1.43,1.66"/>
              <path class="cls-6" d="M16.72,35.54s-.71-1.92-.83-2.36-.06-1.13.24-1.51,2.31-3.13,2.57-3.64c.23-.45.26-.9.28-1.42.01-.31.1-2.05.27-3.72.13-1.31.36-2.61.37-2.87.04-.59-.44-.6-.77,0"/>
              <path class="cls-1" d="M18.35,26.69c-.11-.83.11-4,.3-5.16.18-1.16.47-2.6-.16-2.43-.5.13-.78.85-.78.85"/>
              <path class="cls-1" d="M17.4,26.34c-.09-.83.24-5.15.36-5.79s-.19-.9-.55-.56c-.44.41-.7,1.84-.7,1.84"/>
              <path class="cls-6" d="M13.34,36.12s-.31-1.96-.54-3.17c-.24-1.28-.57-2.18-.14-3.3.44-1.12,1.91-3.03,2.21-3.87.3-.84.44-2.86.68-3.38s.74-.97.95-.56c.15.28-.28,3.6-.21,4.13"/>
            </g>
            <path class="cls-6" d="M12.32,20.13c-.35.41-1.13.43-1.53,0"/>
            <g>
              <polyline class="cls-2" points="8.07 21.28 8.78 20.74 9 21.56"/>
              <polyline class="cls-2" points="6.74 19.24 5.77 19.2 6.2 18.35"/>
              <path class="cls-3" d="M8.76,20.88c-.15.68-.7,1.22-1.38,1.36"/>
              <path class="cls-3" d="M5.86,19.12c.31-.26.72-.42,1.16-.42.85,0,1.55.59,1.74,1.37"/>
            </g>
            <g>
              <polygon class="cls-7" points="4.75 20.29 8.17 25.78 6.54 31.18 4.34 28.03 4.75 20.29"/>
              <path class="cls-4" d="M3.97,25.08c-.42-.33-1.64-.38-1.33.15.23.38,1.24,1.18,1.43,1.66"/>
              <path class="cls-6" d="M6.28,35.63s.74-2,.86-2.44.06-1.13-.24-1.51c-.3-.38-2.31-3.13-2.57-3.64-.23-.45-.26-.9-.28-1.42-.01-.31-.1-2.05-.27-3.72-.13-1.31-.36-2.61-.37-2.87-.04-.59.44-.6.77,0"/>
              <path class="cls-1" d="M4.69,26.69c.11-.83-.11-4-.3-5.16s-.47-2.6.16-2.43c.5.13.78.85.78.85"/>
              <path class="cls-1" d="M5.64,26.34c.09-.83-.24-5.15-.36-5.79s.19-.9.55-.56c.44.41.7,1.84.7,1.84"/>
              <path class="cls-6" d="M9.7,36.12s.31-1.96.54-3.17c.24-1.28.57-2.18.14-3.3-.44-1.12-1.91-3.03-2.21-3.87s-.44-2.86-.68-3.38-.74-.97-.95-.56c-.15.28.28,3.6.21,4.13"/>
            </g>
          </g>
        </g>
      </g>
    </g>
  </g>
</svg>