<?xml version="1.0" encoding="UTF-8"?>
<svg id="Layer_2" data-name="Layer 2" xmlns="http://www.w3.org/2000/svg" viewBox="0 0 31.89 31.89">
  <defs>
    <style>
      .cls-1 {
        fill: #231f20;
      }

      .cls-2 {
        stroke-miterlimit: 10;
        stroke-width: .95px;
      }

      .cls-2, .cls-3 {
        fill: none;
        stroke: #231f20;
        stroke-linecap: round;
      }

      .cls-3 {
        stroke-linejoin: round;
        stroke-width: .71px;
      }
    </style>
  </defs>
  <g id="p9">
    <g id="p9-2" data-name="p9">
      <g id="absorb">
        <g id="icon_step3">
          <g>
            <circle class="cls-3" cx="15.94" cy="15.94" r="15.59"/>
            <g>
              <circle class="cls-2" cx="15.94" cy="12.13" r=".43"/>
              <line class="cls-2" x1="15.94" y1="12.13" x2="18.66" y2="9.42"/>
              <g>
                <path class="cls-1" d="M14.36,6.21c-.46,0-.83-.37-.83-.83s.37-.83.83-.83.83.37.83.83-.37.83-.83.83Z"/>
                <circle class="cls-1" cx="17.25" cy="5.33" r=".81"/>
                <circle class="cls-1" cx="17.25" cy="5.33" r=".81"/>
                <circle class="cls-1" cx="19.9" cy="6.45" r=".79"/>
                <circle class="cls-1" cx="19.9" cy="6.45" r=".79"/>
                <path class="cls-1" d="M21.88,9.32c-.42,0-.77-.34-.77-.77s.34-.77.77-.77.77.34.77.77-.34.77-.77.77Z"/>
                <path class="cls-1" d="M21.88,9.32c-.42,0-.77-.34-.77-.77s.34-.77.77-.77.77.34.77.77-.34.77-.77.77Z"/>
                <path class="cls-1" d="M22.82,12.02c-.41,0-.74-.33-.74-.74s.33-.74.74-.74.74.33.74.74-.33.74-.74.74Z"/>
                <path class="cls-1" d="M22.82,12.02c-.41,0-.74-.33-.74-.74s.33-.74.74-.74.74.33.74.74-.33.74-.74.74Z"/>
                <circle class="cls-1" cx="22.59" cy="14.15" r=".69"/>
                <circle class="cls-1" cx="22.59" cy="14.15" r=".69"/>
                <path class="cls-1" d="M21.2,17.32c-.35,0-.64-.29-.64-.64s.29-.64.64-.64.64.29.64.64-.29.64-.64.64Z"/>
                <path class="cls-1" d="M21.2,17.32c-.35,0-.64-.29-.64-.64s.29-.64.64-.64.64.29.64.64-.29.64-.64.64Z"/>
                <path class="cls-1" d="M18.9,19.01c-.33,0-.59-.26-.59-.59s.26-.59.59-.59.59.26.59.59-.26.59-.59.59Z"/>
                <path class="cls-1" d="M18.9,19.01c-.33,0-.59-.26-.59-.59s.26-.59.59-.59.59.26.59.59-.26.59-.59.59Z"/>
                <circle class="cls-1" cx="16.09" cy="19.06" r=".54"/>
                <circle class="cls-1" cx="16.09" cy="19.06" r=".54"/>
                <path class="cls-1" d="M13.25,19.01c-.27,0-.49-.22-.49-.49s.22-.49.49-.49.49.22.49.49-.22.49-.49.49Z"/>
                <path class="cls-1" d="M13.25,19.01c-.27,0-.49-.22-.49-.49s.22-.49.49-.49.49.22.49.49-.22.49-.49.49Z"/>
                <path class="cls-1" d="M10.89,17.31c-.24,0-.44-.2-.44-.44s.2-.44.44-.44.44.2.44.44-.2.44-.44.44Z"/>
                <path class="cls-1" d="M10.89,17.31c-.24,0-.44-.2-.44-.44s.2-.44.44-.44.44.2.44.44-.2.44-.44.44Z"/>
                <path class="cls-1" d="M9.4,14.81c-.22,0-.4-.18-.4-.4s.18-.4.4-.4.4.18.4.4-.18.4-.4.4Z"/>
                <path class="cls-1" d="M9.4,14.81c-.22,0-.4-.18-.4-.4s.18-.4.4-.4.4.18.4.4-.18.4-.4.4Z"/>
                <circle class="cls-1" cx="9.04" cy="11.54" r=".38"/>
                <circle class="cls-1" cx="9.04" cy="11.54" r=".38"/>
                <path class="cls-1" d="M9.86,9.14c-.2,0-.36-.16-.36-.36s.16-.36.36-.36.36.16.36.36-.16.36-.36.36Z"/>
                <path class="cls-1" d="M9.86,9.14c-.2,0-.36-.16-.36-.36s.16-.36.36-.36.36.16.36.36-.16.36-.36.36Z"/>
                <path class="cls-1" d="M11.75,6.94c-.19,0-.34-.15-.34-.34s.15-.34.34-.34.34.15.34.34-.15.34-.34.34Z"/>
                <path class="cls-1" d="M11.75,6.94c-.19,0-.34-.15-.34-.34s.15-.34.34-.34.34.15.34.34-.15.34-.34.34Z"/>
              </g>
            </g>
            <line class="cls-3" x1="15.94" y1="28.33" x2="15.94" y2="23.14"/>
            <polyline class="cls-3" points="13.87 26.25 15.94 28.33 18.02 26.25"/>
            <g>
              <path class="cls-3" d="M18.21,23.7c.94.03,1.89.08,2.83.15"/>
              <path class="cls-3" d="M22.96,24.03c.94.1,1.87.23,2.81.37"/>
            </g>
            <g>
              <path class="cls-3" d="M6.12,24.43c.94-.15,1.87-.27,2.81-.38"/>
              <path class="cls-3" d="M10.85,23.87c.94-.08,1.89-.13,2.83-.16"/>
            </g>
            <path class="cls-3" d="M4.82,22.38c7.41-1.62,14.83-1.62,22.24,0"/>
          </g>
        </g>
      </g>
    </g>
  </g>
</svg>