<?xml version="1.0" encoding="UTF-8"?>
<svg id="Layer_2" data-name="Layer 2" xmlns="http://www.w3.org/2000/svg" viewBox="0 0 23.18 36.2">
  <defs>
    <style>
      .cls-1, .cls-2, .cls-3, .cls-4, .cls-5 {
        stroke: #231f20;
        stroke-linecap: round;
        stroke-linejoin: round;
      }

      .cls-1, .cls-6 {
        fill: #b5b2b1;
      }

      .cls-1, .cls-5 {
        stroke-width: .3px;
      }

      .cls-2, .cls-7 {
        fill: #231f20;
      }

      .cls-2, .cls-4 {
        stroke-width: .6px;
      }

      .cls-8 {
        fill: #b3b3b3;
        opacity: .5;
      }

      .cls-3 {
        stroke-width: .5px;
      }

      .cls-3, .cls-4, .cls-5 {
        fill: none;
      }
    </style>
  </defs>
  <g id="p9">
    <g id="p9-2" data-name="p9">
      <g id="apply">
        <g id="icon_step1">
          <g>
            <path class="cls-3" d="M19.17,17.44c-1,4.38-2.72,7.33-5.17,8.84-1.48.91-3.33.91-4.81,0-2.45-1.51-4.17-4.46-5.17-8.84"/>
            <path class="cls-3" d="M19.4,16.34c2.2.6,1.44,3.26-.68,2.96"/>
            <path class="cls-3" d="M18.59,16.46c-.27-.71-.15-5.88-2.85-7.3-.33.99-1.02,2.57-5.12,2.57s-4.62,1.46-5.03,2.28c-.52,1.05-.32,1.81-1,2.73"/>
            <path class="cls-3" d="M3.78,16.34c-2.2.6-1.44,3.26.68,2.96"/>
            <path class="cls-3" d="M3.46,16.45C1.06,8.05,6.53,3.59,11.59,3.59c5.06,0,10.53,4.45,8.13,12.86"/>
            <path class="cls-3" d="M15.66,4.58c0-.08,0-.17,0-.26,0-2.25-1.83-4.08-4.08-4.08s-4.08,1.83-4.08,4.08c0,.09,0,.17,0,.26"/>
            <path class="cls-4" d="M6.97,15.59c.53-.29,1.81-.35,2.44,0"/>
            <path class="cls-2" d="M12.39,20.01c-.35.4-1.12.43-1.52,0"/>
            <ellipse class="cls-7" cx="8.16" cy="17.35" rx=".74" ry=".9"/>
            <ellipse class="cls-7" cx="15.09" cy="17.35" rx=".74" ry=".9"/>
            <path class="cls-4" d="M16.29,15.59c-.53-.29-1.81-.35-2.44,0"/>
            <path class="cls-4" d="M13.64,21.89c-.93.59-2.96.63-4.02,0"/>
            <path class="cls-3" d="M6.91,24.21c0,.84-.03,2.03-.05,3.11-.04,1.63-1.13,3.04-2.69,3.51l-3.91,1.16"/>
            <path class="cls-3" d="M16.27,24.21c0,.84.03,2.03.05,3.11.04,1.63,1.13,3.04,2.69,3.51l3.91,1.16"/>
            <polygon class="cls-6" points="17.66 21.15 17.47 28.32 16.48 29.71 12.86 27.25 13.89 25.54 17.66 21.15"/>
            <path class="cls-8" d="M17.21,18.32c-.89-.2-1.24.1-1.34.18-.36.28-.44.74-.73.93-.1.06-.17.09-.52.13-.28.03-.49.07-.59.13-.18.1-.42.33-.44.62-.03.47.56.79.68.86.38.21.74.19.92.17"/>
            <g>
              <path class="cls-5" d="M18.19,26.2c.37-.81,1.05-1.43,1.39-1.72.42-.35-.66-.83-1.28-.26"/>
              <path class="cls-5" d="M15.98,35.53s-.83-2.63-.95-3.08-.08-1.15.32-1.62,2.34-3.17,2.59-3.62.26-.66.26-1.71c0-1.05.32-2.78.6-3.57s.7-1.7.64-2.08-.25-.5-.53-.28c-.34.26-1.14,2.03-1.33,3.4"/>
              <path class="cls-1" d="M16.93,18.98c.18-.45.68-.91.93-.65.22.23-.08,1.63-.15,2.35s-.08,2.07-.16,2.85c-.08.78-.05,2.16,0,2.44"/>
              <path class="cls-1" d="M15.72,21c.24-1.17.69-2.44,1.25-1.99.22.18-.1,1.21-.22,2.41-.12,1.21-.3,3.55-.17,4.07"/>
              <path class="cls-5" d="M15.58,25.23c-.28-.54.17-3.58.14-4.23s-.85.03-.99.68-.31,2.62-.87,3.55-1.64,2.59-1.95,3.47-.37,2.17,0,3.3.6,4.05.6,4.05"/>
            </g>
          </g>
        </g>
      </g>
    </g>
  </g>
</svg>