<?xml version="1.0" encoding="UTF-8"?>
<svg id="Layer_2" data-name="Layer 2" xmlns="http://www.w3.org/2000/svg" viewBox="0 0 407.84 141.73">
  <defs>
    <style>
      .cls-1 {
        fill: #fff;
      }

      .cls-2 {
        fill: none;
        stroke: #fff;
        stroke-miterlimit: 10;
        stroke-width: 3px;
      }
    </style>
  </defs>
  <g id="Layer_1-2" data-name="Layer 1">
    <g id="logo_primary">
      <path id="path6501" class="cls-1" d="M86.9,7.78c-.21,0-.43.02-.65.08-.42.11-1.03.41-1.24.61-.2.2-.33.56-.25.74l.05.11.3-.12c.26-.1.35-.12.69-.1.48.03.8.17,1.13.51.57.58.66,1.81.23,2.92-.18.45-.56,1.18-.82,1.57-.25.37-1.17,1.19-1.66,1.47-.12.07-.37.23-.55.36-.18.13-.42.26-.54.3-.11.04-.44.18-.74.31-.29.13-.73.32-.96.42-.91.39-2.04.97-2.45,1.27-.8.58-1.29,1.25-1.56,2.12-.13.43-.16.69-.16,1.43,0,.65.05,1.06.18,1.49l.08.25-.19.47c-.11.26-.27.69-.37.95-.25.68-.8,1.83-1.27,2.63-.45.77-.6,1.08-.81,1.67-.13.37-.14.47-.15,1.08v.67s-.24.34-.24.34c-.13.19-.3.43-.38.55-.2.28-.26.47-.29.91-.07.92-.43,1.67-1.03,2.12-.54.41-1.44.83-2.24,1.05-1.15.32-2.13.94-2.69,1.7-.18.25-.68.74-.78.77-.14.04-.19-.07-.1-.21.09-.14.06-.33-.16-.92-.39-1.06-.92-2.07-1.52-2.87-.15-.2-.32-.42-.37-.49-.24-.32-1.06-1.22-1.48-1.62-.43-.41-.79-.7-1.66-1.34-.62-.46-1.82-1.04-2.85-1.38-1.17-.39-2.99-.62-3.62-.46-.15.04-.24.09-.29.19-.04.08-.09.14-.11.14-.01,0-.25-.23-.51-.5-.27-.28-.49-.5-.51-.5-.01,0-.12.07-.24.16-.12.09-.33.22-.48.29-.15.07-.33.19-.42.26-.09.07-.27.21-.42.31-.14.1-.36.24-.48.33-.12.08-.37.26-.57.4-.2.14-.6.42-.9.63-.3.21-.82.57-1.16.8-.6.4-.76.55-.72.63.08.14.6-.12,1.54-.76,1.33-.91,1.5-1.02,2.18-1.39.56-.3.71-.36.82-.34.22.05.27,0-.77.73-.7.49-.73.52-.7.62.03.08.04.08.15,0,.06-.04.46-.27.88-.51.42-.24.83-.47.91-.52.12-.08.18-.08.33-.04.1.03.19.07.19.08s-.47.34-1.05.72c-2.78,1.83-2.97,1.96-2.86,2.07.08.09.41-.05.89-.36.62-.41,1.04-.68,1.17-.75.07-.03.49-.31.94-.61.89-.59,1.19-.76,1.24-.71.02.02-.16.21-.4.42-.87.79-1.93,1.92-1.93,2.06,0,.05.2.23.27.23.03,0,.18-.19.33-.41.31-.47.53-.73.95-1.09l.29-.25-.15.26c-.12.22-.73,1.25-.97,1.62-.06.1-.06.12.05.2.07.05.13.09.15.09.03,0,.45-.55.7-.92.21-.31.81-.97.94-1.02.07-.03.08-.01.05.08-.05.17-.25.55-.47.89-.11.18-.32.57-.46.86l-.25.54.11.11.11.11.09-.12c.05-.07.26-.37.47-.67.37-.54,1.22-1.49,1.33-1.49.07,0-.06.23-.66,1.18-.25.4-.53.91-.63,1.14l-.18.42.1.14c.06.08.12.13.14.12.02-.01.21-.28.42-.59.24-.35.62-.81,1-1.21.71-.75.87-.8.44-.14-.67,1.01-1.15,1.78-1.29,2.05-.09.17-.17.3-.2.3-.07,0-.04.09.11.32.08.13.14.19.12.14-.04-.12.06-.29.46-.78.95-1.16,1.99-2.2,1.99-2,0,.02-.04.08-.1.13-.31.29-1.32,1.89-1.64,2.61-.07.17-.15.3-.17.31-.13.02-.33.01-.33,0,0-.01-.04-.05-.09-.08-.08-.05-.06,0,.07.29.33.7.55,1.9.54,2.96,0,.49-.04.82-.17,1.44-.03.15,0,.12.36-.31.47-.58.52-.63.55-.59.07.07-.91,2.09-1.42,2.92-.2.33-.37.61-.37.63s.05.06.11.07c.22.07.94-.85,1.86-2.37.67-1.11.73-1.2.77-1.16.01.02-.05.26-.13.53-.16.51-.36.95-.59,1.31-.07.11-.25.45-.4.77-.15.31-.39.74-.51.95-.13.21-.23.4-.23.42s.05.05.11.07c.26.07.99-.89,1.84-2.43.18-.32.41-.75.52-.94.11-.19.22-.41.25-.48.08-.22.11-.07.03.19-.04.14-.11.4-.16.59-.12.5-.71,1.87-.97,2.24-.14.2-.62,1.05-.62,1.1,0,.02.04.05.09.07.07.02.23-.13.73-.73.64-.75,1.12-1.37,1.41-1.8.16-.24.24-.29.24-.14,0,.25-.61,1.55-1.07,2.29-.15.24-.27.45-.27.49,0,.05.1.12.18.12.02,0,.47-.47,1-1.03s.98-1.02,1-1.01c.04.04-.54,1.18-.81,1.59-.13.2-.23.37-.23.38,0,.06.2,0,.32-.09.07-.06.32-.24.54-.39.22-.16.53-.4.68-.55.25-.24.27-.25.27-.15,0,.19-.28.62-.64.98-.47.47-.63.55-1.7.8-.51.12-2.09.15-2.85.05-.84-.11-1.93-.3-2.18-.37-.33-.1-.39-.09-.39.05,0,.1.04.14.25.24.14.06.35.14.46.16.12.02.36.08.55.12.19.04.49.09.67.1.18.02.64.06,1.03.1.99.1,1.88.04,3.03-.23.7-.16,1.7-.84,2.52-1.7.25-.27.58-.61.74-.76.5-.49,2.32-2.17,2.37-2.19.03-.01-.08.13-.23.31-.16.18-.68.81-1.16,1.39-.48.58-1.04,1.25-1.24,1.49-.2.24-.55.68-.79.99-.23.3-.58.73-.77.96-.37.43-.4.53-.28.77.11.21.33.34.62.37.25.03.27.04.41.26.08.13.21.27.27.3.14.08.16.08.26.04.23-.09,3.68-4.92,4.09-5.73.07-.15.07-.16-.01-.2-.05-.03-.1-.05-.11-.05-.04,0-.65.84-1.49,2.04-1.07,1.54-1.81,2.56-1.96,2.75-.07.08-.19.24-.27.35l-.14.2-.04-.13c-.05-.15.06-.38.59-1.25.38-.62.73-1.23.76-1.29.03-.07.63-.91.82-1.14.27-.34,1-1.41.97-1.44-.03-.03-.31.27-.97,1.05-.27.33-.59.69-.69.81-.32.38-.94,1.15-1.4,1.77-.24.33-.47.6-.51.62-.04.01-.16,0-.28-.03l-.21-.06.33-.39c.18-.22.48-.59.67-.83.19-.24.93-1.15,1.65-2.01s1.4-1.69,1.52-1.84l.21-.27.07.11c.13.21.4.44.67.56.25.12.29.13.98.12.5,0,.85-.04,1.17-.1.25-.05.7-.12,1-.15,1.22-.12,2.44-.38,3.14-.68,1.29-.55,2.61-1.35,3.43-2.07,1.21-1.06,2-1.88,2.59-2.73.18-.25.43-.61.57-.79.14-.19.35-.51.48-.72.21-.35.49-.76,1.3-1.92.51-.73.79-1.21.9-1.53.11-.33.14-.73.06-.88-.02-.05-.07-.2-.1-.35-.08-.35-.15-.44-.42-.59-.4-.22-.79-.15-1.1.19-.74.82-.76.84-1.18.84-.34,0-.65-.15-.81-.39-.1-.15-.11-.2-.08-.47.08-.79.34-1.19,2.55-3.83,1.33-1.59,1.76-2.29,1.84-2.93.03-.3-.07-.57-.25-.65-.14-.06-.13-.07-.6.26-.46.32-1,.34-1.36.06-.09-.08-.22-.17-.28-.21-.25-.17-.33-.33-.33-.67,0-.35.07-.51.32-.77.29-.29.65-.48,1.35-.67,1.87-.53,3.51-1.36,4.99-2.52.55-.43,1.67-1.5,1.86-1.78.66-.96,1.01-1.65,1.18-2.36.33-1.39.26-2.29-.26-3.32-.56-1.11-1.39-1.72-2.3-1.75h0ZM87.55,9.44l.25.09c.41.14.63.28.91.55.56.56.72,1.34.48,2.46-.26,1.24-1.16,2.65-2.33,3.65-1.14.97-2.48,1.79-3.43,2.1-.37.12-1.62.51-2.19.68-.49.15-1.21.55-1.46.83-.2.22-.36.51-.72,1.29-.18.4-.43.93-.54,1.18l-.21.46.03-.41c.05-.8.19-1.3.56-2.05.21-.42.43-.78.58-.95.53-.61,1.32-1.13,2.43-1.59.23-.1.73-.34,1.12-.53,2.27-1.17,3.14-1.88,4.09-3.32.51-.78.76-1.39.87-2.18.08-.53.04-.84-.17-1.45-.1-.28-.19-.57-.21-.65l-.04-.15ZM88.99,14.82c-.1,0-.29.41-.36.83-.03.16-.07.42-.1.58-.03.16-.04.52-.02.81l.03.52-.19.39c-.11.22-.29.54-.4.73-.11.19-.3.52-.42.75-.12.23-.34.6-.48.82-.15.23-.4.67-.57.98-.4.76-.72,1.27-1.22,1.96-.39.54-.87,1.23-1.28,1.85-.42.64-1.33,1.79-1.91,2.43-.18.2-.33.38-.33.41,0,.09.11.05.37-.16.28-.22,1.65-1.72,2.49-2.73,1.16-1.4,1.67-2.06,3.03-3.99.22-.3.53-.73.7-.94.17-.21.37-.49.46-.61.08-.13.16-.23.18-.23.02,0,.09.05.17.12l.14.12-.11.33c-.06.18-.25.71-.42,1.17-.45,1.24-.87,2.56-.83,2.61.02.02.14-.1.27-.26.13-.17.26-.32.29-.35.06-.05.24-.38,1.14-2.06l.48-.89h.2c.14,0,.2.02.2.06,0,.11-.69,2.09-.88,2.53-.4.93-.81,1.78-1.04,2.16-.49.83-1.24,2-1.38,2.15-.11.12-.13.17-.09.21.04.04.1.01.24-.11.27-.23.76-.78,1.01-1.12.11-.16.28-.36.37-.46.37-.39,1.08-1.64,2.2-3.93.7-1.42.71-1.44,1-1.4.34.05.3,1.31-.07,2.38-.33.95-.56,1.41-1.22,2.4-.65.97-1.06,1.54-1.51,2.08-.14.16-.25.33-.25.36s.04.1.09.14c.09.08.1.08.26,0,.2-.1,1.24-1.34,1.7-2.03.07-.1.22-.32.34-.49.86-1.22,2.08-3.64,2.35-4.68.07-.27.09-.64.03-.73-.09-.14-.28-.15-.72-.04-.62.16-.83.18-1.26.12-.58-.08-1.02-.26-1.43-.58-1.03-.8-1.42-1.95-1.23-3.68.03-.26.04-.5.03-.51-.01-.02-.02-.03-.04-.03h0ZM87.1,17.52s-.17.15-.37.44c-.13.19-.38.52-.56.75-.89,1.08-1.41,1.85-2.17,3.15-.23.4-.52.89-.65,1.11-.12.21-.31.53-.4.7-.34.59-.68,1.08-1.42,2-.21.26-.48.61-.59.79-.12.17-.31.46-.44.63-.42.58-.25.49.49-.28.48-.49,1.08-1.21,2.04-2.41.84-1.06,1.93-2.69,2.6-3.91,1.01-1.82,1.23-2.24,1.36-2.53.13-.29.16-.43.12-.43h0ZM39.5,18.85c-.06,0-.15.03-.26.13-.15.13-.15.16-.16.51,0,.3-.02.37-.08.37-.07,0-.23-.28-.23-.41,0-.17-.2-.02-1.1.85-.69.66-1.23,1.32-1.23,1.51,0,.13.09.21.69.61.24.16.56.39.72.52.16.13.33.26.38.29.06.03.07.06.04.1-.03.03-.26-.08-.69-.33-.66-.39-1.25-.67-1.42-.67-.06,0-.12.04-.14.11-.02.06-.12.24-.21.39-.17.29-.21.47-.12.53.03.02.22.07.43.12.23.06.6.2.94.38.66.34.76.41.7.47-.06.06-.31-.01-.93-.25-.56-.22-1.27-.42-1.39-.4-.11.02-.32.51-.32.76,0,.28.12.35.9.5.38.07.89.18,1.15.24l.46.11-.04.13c-.04.11-.07.13-.17.11-.07-.01-.48-.09-.92-.16-.86-.15-1.43-.19-1.53-.1-.07.05-.17.5-.17.71,0,.11.01.11.46.12.26,0,.7.02.99.04,1.02.07,1.14.06,1.31-.06.13-.09.18-.17.24-.4.16-.6.86-2,1.14-2.28.09-.09.31-.33.49-.53.18-.2.47-.49.65-.64l.33-.28-.16-.23c-.39-.54-.65-1.37-.64-2.06,0-.25.01-.52.02-.6.01-.1-.03-.16-.09-.16h0ZM84.68,18.96c-.07.01-.21.12-.4.32-.5.51-1.24,1.93-1.14,2.19.04.11.09.1.21-.03.24-.27,1.03-1.55,1.28-2.08.13-.28.15-.42.05-.4h0ZM70.48,19.3c-.14,0-.31.1-.52.32l-.23.23.11.15c.1.14.35.34.43.34.01,0,.14-.11.27-.25.29-.31.33-.43.23-.59-.08-.13-.18-.2-.29-.2h0ZM66.26,19.97c-.12,0-.22.06-.24.19-.01.06-.04.22-.06.36l-.04.25h.27c.15,0,.33-.02.39-.05.16-.06.2-.24.1-.46-.09-.19-.27-.29-.42-.3h0ZM69.53,20.01l-.31.28-.31.28.1.13c.11.15.38.31.52.31.05,0,.2-.11.33-.24.22-.23.23-.25.14-.3-.05-.03-.18-.14-.29-.26l-.19-.2ZM46.92,20.13c-.17-.02-.69.11-.78.2-.05.06-.13.33-.21.81-.11.64-.65,2.48-.72,2.48-.01,0-.01-.69,0-1.54.01-1.27,0-1.55-.05-1.61-.08-.08-.07-.09-.74.03-.31.05-.73.1-.93.1-.58,0-.67.14-.25.41.48.32.69,1.11.51,1.98-.09.46-.24.81-.36.88-.13.07-.12.25.03.38.23.22.35.73.43,1.78.03.39.04.42.16.46.07.03.27.05.44.06.24,0,.33-.01.39-.08.08-.1.28-.62.77-2.05.19-.56.47-1.35.62-1.76.67-1.84.85-2.41.75-2.5-.01,0-.03-.01-.05-.02h0ZM68.71,20.77l-.2.22c-.26.3-.26.43,0,.69.11.11.21.2.23.2.01,0,.15-.13.31-.29.21-.21.26-.3.21-.32-.04-.01-.18-.13-.32-.26l-.25-.23ZM72.17,20.86c-.09,0-.21.04-.37.11-.23.09-.38.17-.38.22,0,.13.24.55.31.55.04,0,.13-.04.2-.09.07-.05.22-.14.33-.19.24-.12.28-.2.2-.38-.06-.15-.14-.22-.3-.21h0ZM66.74,20.95l-.15.04c-.08.02-.28.04-.45.04-.3,0-.3,0-.34.16-.02.09-.12.28-.21.43-.09.15-.18.33-.2.4-.03.12-.02.13.2.18.24.05.53.04.83-.04.22-.06.62-.32.59-.4-.01-.03-.1-.11-.19-.17-.18-.12-.19-.16-.12-.46l.04-.19ZM71.15,21.26l-.39.18c-.21.1-.4.19-.42.21-.11.12.22.71.4.71.05,0,.23-.1.41-.22.18-.12.34-.23.35-.24.01,0-.04-.09-.1-.18-.07-.09-.15-.23-.19-.31l-.06-.15ZM49.23,21.33c-.09-.01-.15.08-.36.44-.35.58-1.54,2.25-2.11,2.97-.32.4-.93,1.07-1.35,1.5l-.77.78-.2-.07c-.55-.2-1.04.03-1.34.62-.28.55.02,1.34.61,1.6.17.08.51.08.74.02h0c.39-.11.71-.54.71-.94v-.22h-.2c-.25,0-.28.02-.39.28-.11.26-.23.34-.49.34s-.52-.21-.57-.46c-.1-.55.49-.96.89-.62.08.07.17.12.21.12.13,0,.81-.61,1.46-1.32l.68-.74.08.11c.24.31.91,1.86.84,1.93-.04.04-.69.12-1.38.17-.75.05-.9.09-.73.22.16.12.5.14,1.34.08,1.36-.09,2.53-.4,3.71-.97.65-.31,1.3-.78,1.34-.96.1-.41-.56-2.29-1.1-3.15-.38-.6-1.21-1.53-1.5-1.68-.04-.02-.07-.04-.1-.04h0ZM42.86,21.46c-.12,0-.3.04-.64.11-.35.07-.97.41-1.7.91-.96.66-1.81,2.03-2.05,3.3-.09.48-.09,1.49,0,1.91.26,1.26.97,2.39,2.02,3.23.83.67,2.03,1.03,3.23.99.43-.02.54,0,.56.05.01.04.03.27.03.52s.02.61.05.79l.05.33-.16.13c-.55.44-1.51,1.7-1.51,1.97,0,.07.05.13.13.18.07.04.16.11.2.15.08.1.42.36.48.36.02,0,.17-.2.34-.44.62-.91,1.24-1.44,2.16-1.82,2.28-.95,4.66.28,6.11,3.17.56,1.11.72,1.74.64,2.51l-.03.36-.08-.46c-.13-.74-.27-1.19-.55-1.76-.28-.57-.83-1.29-1.19-1.59-.56-.44-1.4-.83-2.21-1-.57-.12-1.64-.12-2.19,0-2.22.49-3.56,1.63-4.16,3.54-.25.79-.21,1.44.12,2.19.2.44.67,1.1.73,1.02.01-.01.11-.16.23-.33.27-.39.94-1.05,1.33-1.3,1.4-.91,3.74-.81,5.5.25.83.5,1.48,1.14,1.76,1.74.05.1.09.18.1.18,0,0,.08-.1.16-.22.32-.47.75-1.75.85-2.52.06-.5.03-1.91-.07-2.38-.17-.89-.51-1.65-1.12-2.52-.9-1.28-1.72-1.86-3.24-2.27-.34-.09-.53-.11-1.18-.11-.59,0-.76-.02-.71-.06.28-.27.67-.56,1.15-.84.91-.55.93-.56.93-.68,0-.07-.05-.15-.13-.2-.07-.05-.53-.37-1.03-.71-1.73-1.22-1.96-1.37-2.07-1.37-.08,0-.11.02-.11.11,0,.06.03.14.07.18.06.05.05.08-.1.24-.14.15-.17.2-.14.3.02.07.05.13.06.13.02,0,.14-.08.28-.17q.29-.19.4-.09c.09.08.08.09-.23.4l-.32.32.06.18c.04.12.07.16.11.13.03-.02.22-.18.43-.35.37-.3.37-.31.5-.23.07.04.13.1.14.12,0,.02-.2.23-.47.47-.45.41-.47.44-.45.59.01.09.03.17.05.19.01.01.15-.07.3-.19.51-.39.97-.71,1.03-.71.03,0,.11.03.17.08.11.07.11.08.02.17-.05.05-.19.17-.32.27-.48.35-1.02.84-1.02.92.01.26.05.25.62-.15.3-.21.7-.48.88-.59l.33-.2.18.12c.1.07.18.14.18.15s-.13.1-.3.19c-.28.15-.82.53-1.68,1.18-.42.32-.96.56-1.03.45-.02-.03-.11-.27-.19-.52-.08-.25-.26-.73-.38-1.06l-.23-.6h-.65c-.55,0-.73-.03-1.13-.14-.84-.23-1.36-.55-1.9-1.19-.48-.56-.9-1.41-1.16-2.35-.18-.64-.19-.97-.06-1.75.12-.73.3-1.14.5-1.14.01,0,.03.2.03.44s.02.48.05.54c.05.1.06.1.12.01.04-.05.07-.13.07-.19s.07-.31.15-.57c.15-.45.16-.47.32-.52.09-.03.18-.05.19-.05.01,0,.02.26,0,.58-.01.41,0,.6.04.64.09.09.17-.07.21-.37.02-.14.08-.4.14-.56.1-.28.13-.31.26-.32l.15-.02v.5c.02.46.03.5.12.5.08,0,.1-.04.13-.23.05-.37.18-.71.27-.71.15,0,.22.09.27.35.06.32.17.35.22.04.02-.12.12-.38.22-.58.1-.2.21-.51.24-.69.1-.53-.03-1.25-.26-1.47-.06-.06-.11-.09-.23-.09h0ZM67.97,21.63l-.06.18c-.09.26-.05.37.23.57.41.3.94.8,1.25,1.16.27.32.36.39.36.31,0-.08-.3-.62-.51-.92-.26-.37-.71-.86-1.03-1.11l-.23-.19ZM70.05,21.78s-.14.07-.29.15c-.57.32-.62.4-.43.68.19.28.26.28.75.07.2-.08.36-.16.37-.17.01,0-.04-.09-.1-.17-.07-.09-.16-.25-.2-.36-.04-.11-.09-.2-.1-.2h0ZM67.24,22.01l-.2.15c-.11.08-.31.19-.45.23-.25.09-.79.12-1.06.05-.14-.03-.15-.02-.17.12-.02.17.07.78.17,1.08.09.29.28.37.85.34.39-.02.49-.04.78-.18.18-.09.4-.22.49-.31.15-.14.16-.16.14-.34-.05-.35-.22-.77-.38-.96l-.16-.19ZM44.86,22.16l-.03.61c-.07,1.55-.16,2.44-.3,2.88-.1.32-.16.43-.23.44-.08.01-.09-.02-.09-.36,0-.47-.13-1.11-.29-1.46l-.12-.27.12-.41c.11-.37.2-.89.23-1.26v-.14s.36-.01.36-.01h.34ZM49.4,22.18c.07.02.47.52.78.99.56.84,1.24,2.41,1.19,2.77-.01.08-.08.18-.17.25-.15.11-.16.11-.19.03-.42-1.22-.91-2.18-1.57-3.11-.17-.24-.32-.47-.34-.5-.03-.08.22-.45.29-.43h0ZM82.21,22.19s-.53,1.13-.73,1.41c-.3.45-1.37,1.69-2.15,2.5-.66.69-1.32,1.38-1.55,1.66-.02.03-.04.03-.04,0,0-.08.59-1.13,1.03-1.82.39-.62,1.51-2.17,2.08-2.89.19-.23.29-.32.46-.37.12-.04.37-.17.55-.29.18-.12.34-.2.35-.19h0ZM72.54,22.65c-.2,0-.42.07-.48.16-.06.09-.04.36.03.51l.07.14.23-.07c.12-.04.29-.09.36-.12.26-.11.31-.44.09-.57-.07-.04-.18-.05-.3-.04h0ZM79.84,22.78s.01,0,.02.01c.04.03.13.07.21.09l.14.03-.23.32c-1.23,1.74-1.62,2.34-2.21,3.4-.28.5-1.81,3.06-1.87,3.13-.01.01-.02,0-.02-.02,0-.14.4-1.15.72-1.8.78-1.6,1.88-3.43,2.85-4.74.24-.33.33-.43.39-.42h0ZM71.74,22.85s-.03,0-.06.01c-.06.02-.14.04-.18.05-.47.11-.47.11-.5.31-.03.2.07.53.17.53.03,0,.21-.05.4-.1l.35-.1-.07-.16c-.04-.09-.07-.25-.07-.36,0-.14,0-.18-.05-.18h0ZM48.8,22.97l.2.26c.56.71,1.18,1.89,1.49,2.83.19.57.2.53-.18.73-.14.07-.18.08-.2.03-.01-.03-.06-.19-.1-.34-.21-.76-.74-1.83-1.32-2.63l-.26-.37.18-.25.18-.25ZM70.74,23.14l-.31.08c-.47.13-.57.27-.44.61.05.13.17.26.24.26.02,0,.18-.04.35-.1.29-.09.32-.11.29-.2-.02-.06-.05-.23-.08-.37l-.05-.27ZM68.07,23.57c-.1,0-.18.05-.4.22-.47.36-1.2.55-1.68.44-.12-.03-.22-.04-.23-.03-.01,0,.11.18.27.38.25.32.34.39.67.56.56.28.64.27,1.05-.15.35-.35.72-.57.96-.57.3,0,.79.43.79.69,0,.1-.08.18-.37.4-.93.69-1.82,1.53-2,1.88-.07.14-.03.3.09.3.05,0,.44-.32.87-.71.89-.81,1.09-.97,1.5-1.25.16-.11.31-.24.32-.29.04-.13-.1-.61-.23-.82-.29-.47-.98-.95-1.49-1.03-.05,0-.08-.01-.12-.01h0ZM48.19,23.82c.07-.04.8,1.11,1.12,1.78.28.59.5,1.18.5,1.37,0,.05-.08.11-.23.16-.12.05-.25.08-.28.08-.03,0-.1-.16-.16-.35-.22-.68-.74-1.75-1.16-2.38l-.14-.2.15-.21c.08-.12.16-.23.19-.24h0ZM70.74,24.45c-.32,0-.37.04-.38.32,0,.23.13.33.43.33h.22l.02-.3c.01-.17.01-.31,0-.32-.01-.01-.15-.02-.3-.02h0ZM71.63,24.47c-.24,0-.27.01-.31.12-.05.14-.06.37-.01.42.02.02.13.03.26.03h.23l.05-.24c.03-.13.05-.26.05-.29s-.12-.05-.26-.05h0ZM72.32,24.47c-.17,0-.19.02-.24.15-.03.08-.05.21-.05.29,0,.17.12.18.43.03.12-.06.22-.14.23-.19.03-.14-.16-.28-.37-.28h0ZM47.48,24.81c.07,0,.73,1.08.96,1.56.26.56.41.97.37,1.01-.02.02-.18.07-.37.12l-.34.09-.04-.12c-.02-.07-.04-.14-.04-.17,0-.08-.41-1.11-.56-1.42-.08-.16-.2-.36-.26-.45l-.12-.17.19-.23c.1-.13.21-.23.23-.23h0ZM65.65,24.86c-.09,0-.32.31-.32.43,0,.23.42.69.83.9.3.16.37.14.66-.2l.26-.3-.28-.13c-.15-.07-.45-.26-.67-.42-.22-.16-.43-.29-.48-.29h0ZM39.27,25.01s.01.03-.01.13c-.09.45.03,2.06.2,2.61.54,1.83,1.31,2.69,2.88,3.19.65.21.98.26,1.47.24l.43-.02v.17c0,.16-.01.18-.18.2-.25.04-1.02.03-1.38-.02-.44-.06-1.13-.3-1.48-.51-.4-.24-1.05-.87-1.39-1.34-.36-.5-.67-1.1-.83-1.6-.12-.37-.13-.5-.15-1.31l-.02-.9.17-.35c.09-.19.2-.39.24-.45.03-.03.04-.06.05-.06h0ZM64.26,25.6s-.08.01-.13.04c-.29.15-.39.8-.19,1.26.16.36.5.82.75,1,.34.25.85.52,1.15.62.34.11.87.12,1.15.02.12-.04.25-.12.3-.17.14-.16.06-.23-.3-.26-.5-.04-1.17-.21-1.52-.38-.23-.11-.4-.24-.6-.46-.39-.42-.48-.64-.48-1.17,0-.35-.03-.49-.13-.49h0ZM65.04,25.69l-.12.22c-.12.22-.12.22-.04.43.15.4.61.83.89.83.11,0,.17-.05.32-.28l.19-.28-.31-.17c-.17-.09-.45-.3-.61-.46l-.3-.29ZM40.39,26.01s-.03,0-.05.02c-.03.02-.05.23-.05.52,0,.55.18,1.41.4,1.89.17.38.99,1.22,1.19,1.22.03,0,.08-.03.11-.06.03-.03.06-.07.06-.09s-.17-.25-.38-.51c-.21-.26-.45-.62-.53-.79-.08-.17-.18-.35-.21-.39-.1-.12-.39-1.07-.44-1.44-.04-.29-.06-.38-.09-.38h0ZM41.44,26.06s-.05.02-.07.05c-.26.26,0,1.49.46,2.19.22.33.42.52.54.48.02,0,.07-.05.09-.09.04-.06,0-.14-.15-.37-.28-.39-.54-1.03-.7-1.69-.08-.3-.14-.56-.15-.57,0,0,0,0-.01,0h0ZM42.31,26.37s-.06.08-.08.24c-.05.5.16.99.43.99.08,0,.11-.03.11-.1,0-.06-.06-.22-.13-.37-.07-.15-.16-.38-.2-.51-.05-.16-.1-.25-.13-.25h0ZM37.65,26.38l-.16.03c-.17.04-1.73.12-2.34.12-.36,0-.37,0-.44.15-.05.1-.06.2-.04.3.02.08.03.22.03.3,0,.16.05.21.2.19.06,0,.46-.07.89-.14.43-.07.95-.15,1.15-.19.3-.06.38-.06.46-.01.14.09.18.02.22-.39l.03-.36ZM63.4,26.55s-.11.05-.19.12c-.08.07-.43.34-.77.59-.77.57-1.72,1.32-2.06,1.63-.22.2-.25.25-.23.36.07.28.33.15,1.2-.62.34-.3,1.52-1.18,1.59-1.18.03,0,.09.08.15.18l.11.18-.21.17c-.12.09-.42.37-.69.61-.26.24-.64.57-.83.74-.2.17-.36.32-.37.35-.02.05.27.23.36.23.03,0,.3-.21.59-.47.61-.54,1.43-1.21,1.47-1.21.04,0,.44.38.42.4-.32.22-1.87,1.56-1.87,1.62,0,.05.45.38.52.38.02,0,.29-.23.59-.52s.71-.66.9-.82l.35-.31.16.08c.09.04.16.1.16.13s-.39.44-.87.92l-.87.86.14.11c.08.06.3.23.5.38.2.15.38.27.4.28.03,0,.26-.23.51-.51.56-.62,1.41-1.5,1.74-1.79.13-.12.24-.24.24-.27,0-.04-.18-.09-.48-.14-1.18-.2-2.28-1.17-2.53-2.24-.04-.18-.08-.25-.16-.24h0ZM37.45,27.45c-.1,0-.26.02-.37.05-.1.03-.39.08-.64.12-.64.1-1.52.33-1.61.43-.06.07-.07.1-.02.17.03.05.06.14.06.2s.04.17.08.24c.07.13.1.14.26.12.1-.02.34-.1.55-.19.21-.09.59-.23.85-.32.26-.09.6-.22.75-.31.26-.14.27-.16.27-.33s0-.18-.18-.18h0ZM84.62,27.54s-.05,0-.05,0c-.21.17-.25,1.59-.07,2.33.06.24.15.55.2.7.1.29.28.6.31.56.02-.02-.07-.48-.2-1.05-.07-.3-.1-1.16-.04-1.31.03-.07.04-.07.16,0,.1.05.14.12.17.25.23,1.32.37,1.86.71,2.7.34.83.68,1.39,1.09,1.77.21.19.31.25.31.16h0s-.15-.26-.33-.53c-.39-.56-.52-.8-.73-1.33-.46-1.11-.69-2.41-.62-3.5l.03-.5-.47-.15c-.23-.07-.39-.11-.47-.11h0ZM51,27.56c-.07,0-.19.06-.37.18-.38.23-.72.37-1.39.57-.84.25-1.29.35-1.66.39-.32.03-.36.04-.37.13-.02.18.11.26.42.26.44,0,1.57-.24,2.28-.48.26-.09.33-.07.33.09,0,.22.43.77.67.88.08.03.14.07.14.09s-.24.14-.54.27c-.89.39-1.08.49-1.08.6,0,.14.17.12.67-.09.83-.35,1.54-.66,1.82-.8.34-.17.37-.28.12-.41-.23-.13-.65-.55-.8-.8-.1-.17-.13-.28-.13-.53,0-.22-.02-.33-.11-.33h0ZM44.12,27.84c-.05,0-.11.03-.17.08-.11.1-.11.23-.01.33.11.11.25.09.34-.05.12-.19,0-.36-.16-.36h0ZM87.59,27.84c-.79,0-1.33.13-1.33.35,0,.2.07.23.55.27.99.08,2.59.77,3.51,1.53.6.49.56.44.48.62-.04.09-.08.16-.09.16-.01,0-.13-.07-.25-.16-.91-.65-2.72-1.52-3.46-1.66-.15-.03-.39-.05-.53-.05-.28,0-.31.03-.31.34,0,.22.03.24.55.36.47.1,1.38.43,1.94.69.51.24,1.33.72,1.56.91q.18.15-.11.51l-.12.14-.21-.17c-.75-.62-2.1-1.22-3.01-1.36-.21-.03-.28,0-.32.13-.06.15.14.26.86.46.79.23,1.57.59,2.07.96l.33.24-.25.2c-.14.11-.26.2-.28.2s-.11-.06-.2-.12c-.39-.3-1.47-.74-1.8-.74-.15,0-.27.13-.21.22.02.03.2.1.41.16.39.11,1.15.46,1.35.62l.11.09-.27.1-.27.1-.29-.12c-.31-.13-.42-.13-.42.03,0,.12.25.5.36.54.25.1,1.54-.58,2.12-1.11.27-.25.77-.87.89-1.11l.1-.21.13.1c.22.16.26.22.19.35-.2.39-1.19,1.42-1.66,1.72-.24.15-.7.38-.91.45-.05.01-.08.05-.08.08,0,.15.77-.06,1.17-.33.59-.39,1.39-1.18,1.71-1.7.12-.18.12-.19.25-.11.33.2.33.18.11.48-.54.72-1.46,1.51-2.38,2.04l-.43.25-.35-.1c-.19-.05-.51-.15-.7-.22-.44-.15-.73-.16-.81-.02-.03.06-.04.12,0,.18.09.17,2.4.94,2.71.9.09-.01.36-.14.59-.28.24-.14.65-.37.91-.51.26-.14.85-.45,1.31-.7.46-.24,1.07-.56,1.36-.71.29-.15.55-.3.59-.34.09-.11.05-.42-.06-.48-.05-.03-.39-.25-.76-.49-.68-.45-1.6-1.01-2.18-1.34-.18-.1-.34-.23-.36-.29-.07-.2-.48-.7-.86-1.06-.67-.63-1.41-.91-2.59-.97-.12,0-.24,0-.35,0h0ZM37.67,28.27c-.06,0-.15.05-.29.12-.19.09-.64.28-.99.41-1.02.39-1.13.44-1.18.55-.07.17.16.55.34.56.02,0,.13-.05.24-.1.11-.06.25-.14.31-.18.06-.04.47-.26.9-.49l.79-.41v-.19c-.02-.2-.03-.28-.13-.27h0ZM37.96,29.18s-.23.09-.46.21c-.23.12-.63.3-.89.42-.48.21-.83.47-.83.62,0,.09.22.44.28.44.02,0,.26-.15.53-.34.51-.36,1.01-.74,1.14-.86.04-.04.13-.12.21-.17.11-.08.13-.12.1-.2-.02-.06-.05-.1-.08-.1h0ZM80.76,29.21c.19,0,.24.02.34.13.06.07.11.17.11.21,0,.07-1,1.08-1.29,1.29-.07.06-.49.45-.93.87-.95.92-1.48,1.38-1.99,1.77-.21.16-.57.44-.81.63-.61.49-1.17.88-1.71,1.2-.81.48-1.59.94-2.17,1.28-.31.18-.69.39-.85.45-.16.07-.55.25-.86.41-.31.16-.84.39-1.19.52-.35.13-.75.28-.9.34l-.26.1.26-.27c.58-.6,1.52-1.18,2.84-1.75.44-.19,1.01-.45,1.25-.58.89-.46,1.01-.57,2.35-2.14.68-.79,1.61-1.82,2.07-2.29.82-.84.83-.86,1-.83.2.03.58-.07.73-.2.14-.12-1.15,1.32-2.1,2.33-.1.11-.3.38-.3.41,0,.02.07-.01.16-.06.14-.08.35-.27,1.13-.97.38-.34,2.41-2.33,2.67-2.6.2-.21.24-.24.44-.24h0ZM77.25,29.74l.06.35.06.35-.49.54c-.27.3-.82.92-1.22,1.38-.83.96-.91,1.04-.91.99,0-.07.34-.72.51-.96.29-.41,1.45-1.96,1.85-2.46l.15-.18ZM38.26,29.84c-.05,0-.15.07-.42.25-.45.31-1.35,1.15-1.35,1.26,0,.08.09.18.17.18.03,0,.22-.15.43-.33.21-.18.5-.47.66-.64.16-.17.36-.36.45-.43.14-.11.16-.14.12-.23-.02-.04-.03-.06-.06-.06h0ZM38.59,30.45s-.13.09-.32.27c-.18.17-.52.52-.75.76l-.43.44.14.12c.07.07.14.11.15.1,0,0,.14-.17.29-.35.15-.19.39-.46.52-.6.55-.6.55-.61.48-.7-.02-.03-.04-.05-.07-.04h0ZM39.01,31.01s-.13.13-.24.29c-.11.16-.35.47-.53.68-.18.22-.33.4-.33.42,0,.08.26.29.36.29.03,0,.09-.08.13-.19.04-.1.19-.38.34-.62.4-.66.43-.73.36-.81-.03-.04-.07-.07-.09-.07h0ZM80.81,31.16c.2.02-.7,1.2-1.3,1.66-.2.15-.59.46-.88.69-.29.23-.89.66-1.33.96-.44.3-.96.66-1.14.79-.34.24-.92.62-1.85,1.19-.28.18-1.04.59-1.69.92-1.08.55-1.54.73-2.41.97l-.1.03.1-.08c.05-.04.33-.19.62-.33.53-.25,1.54-.85,2.24-1.32.21-.14.72-.48,1.14-.76.96-.64,1.78-1.23,2.56-1.86.34-.27.8-.62,1.02-.78.79-.57,1.88-1.34,2.01-1.41.07-.04.3-.2.5-.35.2-.15.41-.29.45-.31.02,0,.04-.01.06-.01h0ZM39.52,31.57s-.06.05-.13.2c-.06.13-.14.35-.19.49-.05.15-.14.36-.19.48l-.1.21.11.09c.2.17.27.12.36-.26.07-.3.21-.73.33-1,.02-.05,0-.1-.09-.16-.04-.03-.07-.05-.1-.05h0ZM92.52,31.95s.06.02.1.05c.07.04.18.12.24.16l.11.08-.44.49c-.43.47-1.12,1.05-1.59,1.33-.13.07-.36.22-.51.32-.29.19-.41.21-.68.12l-.16-.05.39-.24c.61-.37.77-.49,1.37-1.04.56-.52.79-.75,1.03-1.07.08-.11.11-.15.16-.15h0ZM40.07,31.97c-.08,0-.16.26-.19.65-.04.45,0,.68.14.74.15.06.16.03.14-.23-.01-.13.01-.41.06-.63.08-.38.08-.4,0-.46-.05-.04-.11-.07-.14-.07h0ZM83.14,32.11c-.28,0-1.26.98-1.8,1.8-.83,1.26-1.36,2.74-1.3,3.69.01.24.05.4.09.45.06.06.08.02.13-.4.13-1.14.73-2.62,1.39-3.45.57-.72,1.04-1.16,1.13-1.06.04.04.03.05-.37.53-.17.2-.36.45-.43.55-.07.1-.19.28-.28.4-.21.3-.6,1.11-.75,1.55-.23.68-.42,1.85-.34,2.06.04.1.16.1.19,0,.01-.04.03-.16.03-.25,0-.53.29-1.57.65-2.36.29-.64,1.08-1.58,1.87-2.25.22-.18.33-.25.4-.23.05.01.32.14.58.28.46.23.49.24.57.17.08-.08.07-.09-.15-.3-.13-.12-.34-.28-.47-.36-.13-.08-.42-.29-.64-.48-.24-.2-.44-.34-.51-.34h0ZM93.24,32.43l.17.09c.09.05.17.11.17.12s-.22.13-.48.25c-.4.18-.47.21-.39.12.05-.06.19-.21.31-.35l.22-.24ZM47.34,33.02c.4,0,.82.02,1.11.08.9.18,2.17,1.04,2.73,1.85.11.16.2.3.19.29-.01,0-.16-.15-.35-.32h0c-.97-.92-2.29-1.5-3.43-1.5s-2.16.37-2.97,1.06l-.24.2-.12-.12c-.15-.15-.14-.17.4-.59.45-.35,1.12-.69,1.66-.84.23-.06.62-.1,1.02-.1h0ZM62.2,33.04c.09,0,.47.29.85.66.94.9,1.81,2.16,2.68,3.87.3.59.58,1.1.63,1.15.07.07.1.07.17.02.08-.06.08-.08-.02-.4-.13-.42-.61-1.44-.96-2.05-.15-.26-.28-.52-.3-.58q-.03-.11.06-.02c.31.32.76.85.92,1.08.36.54.76,1.34.79,1.58l.03.23-.38.45c-.21.25-.41.5-.46.57l-.08.12-.07-.16c-.04-.09-.21-.52-.38-.96-.76-1.97-1.91-3.91-2.95-4.95-.3-.3-.55-.57-.55-.59,0-.01,0-.02.02-.02h0ZM94.97,33.12l-.48.26c-.26.15-.65.36-.86.48-.21.12-.57.32-.8.44-.23.12-.53.29-.67.38-.84.51-1.11.66-1.46.83-.86.43-.9.47-.76.8.23.52.33,1.37.2,1.68-.04.1-.08.22-.08.27,0,.12.54.41,1.27.69,1.13.43,1.68.51,3.39.51,1.42,0,1.44,0,2.34.17.74.14,1.01.21,1.64.42.5.17,1.72.68,1.8.76.07.06.22.03.28-.07.08-.13-.1-.26-.81-.58-1.16-.53-2.31-.86-3.57-1.03-.21-.03-.84-.06-1.41-.07-1.19-.02-1.78-.1-2.58-.34-.79-.23-1.59-.6-1.53-.69.01-.02.19.01.39.08.72.22,1.66.33,3.49.38.43.01.95.05,1.14.07.61.09,2.15.39,2.4.47.53.17,1.62.62,2.35.98.6.29.8.37.84.33.16-.13.05-.21-1.15-.84-1.76-.93-3.18-1.35-5.06-1.51-1.86-.16-2.76-.28-3.76-.49-.89-.19-1-.23-1-.42,0-.17.01-.18.47-.05.61.17,1.23.24,2.48.26,1.78.04,2.94.17,4.04.45.11.03.22.04.23.03.04-.04-.6-.31-.98-.41-.2-.05-.53-.14-.72-.19-.37-.1-1.1-.21-2.02-.29-1.02-.1-1.4-.16-2.5-.44-.28-.07-1-.38-1-.43,0-.02.07-.06.16-.09.13-.04.24-.03.7.09.85.23,1.95.35,2.91.32.89-.02,1.07-.08.65-.19-.41-.11-.71-.17-.99-.2-.7-.08-1.88-.3-2.21-.42l-.19-.07.25-.12c.22-.1.28-.11.52-.08.36.05,1.34.07,1.38.02.07-.07-.08-.2-.35-.31-.15-.06-.32-.15-.36-.19-.08-.08-.07-.09.17-.22.14-.08.4-.21.57-.3l.32-.17.17.11c.1.06.46.26.82.44.35.18.91.49,1.24.67.94.54,2.28,1.25,2.64,1.39.18.07.41.17.51.22.17.09.55.24,1.37.53.22.08.68.22,1.01.3l.61.16v-.38c0-.52-.1-.71-.41-.83-.31-.12-1.83-.78-2.72-1.19-1.19-.55-2.46-1.23-3.61-1.95l-.72-.45ZM52.14,33.51c-.06,0-.11.03-.17.06-.09.06-.12.12-.12.23,0,.13.05.19.26.37,1.05.87,1.18,1,1.65,1.58.47.58.71,1.09.97,2.05.22.82.19,1.78-.1,2.93-.22.87-.73,1.84-1.25,2.4-.39.41-.97.8-1.19.8-.1,0-.29.21-.29.33,0,.24.39.33.81.18.35-.12.97-.58,1.22-.9,1.09-1.37,1.42-2.22,1.59-3.97.14-1.47-.18-2.76-.98-3.97-.3-.45-.51-.67-1.45-1.46-.55-.47-.78-.63-.96-.63h0ZM58.65,33.55s-.06.17-.21.37c-.15.2-.35.52-.46.71-.11.19-.36.6-.56.91-.2.32-.42.7-.47.85-.12.32-.17.33-.44.15-.1-.07-.18-.16-.18-.21,0-.11.33-.62.74-1.14.42-.52,1.49-1.65,1.58-1.65h0ZM83.97,33.89c-.16,0-.44.13-.4.19.01.02.2.14.42.27,1.18.69,2.27,2.46,2.27,3.68,0,.49-.07.74-.24.84l-.14.08v-.27c0-.5-.24-1.41-.55-2.08-.34-.74-1.15-1.67-1.65-1.91-.47-.22-.64-.21-.79.07-.08.15-.01.26.28.44,1.11.7,1.83,2,1.9,3.48l.03.53-.16.05c-.31.11-.33.09-.33-.27,0-.18-.03-.46-.07-.62-.11-.47-.43-1.24-.67-1.6-.27-.42-.76-.87-1.12-1.06l-.28-.14-.08.17c-.07.15-.07.18-.01.21.44.25,1.11,1.07,1.46,1.78.2.4.2.42.23,1.04l.03.63h-.24c-.39,0-.39,0-.39-.47,0-.7-.18-1.18-.65-1.69-.23-.25-.67-.57-.79-.58-.02,0-.05.07-.06.15-.03.13,0,.17.28.43.48.45.72.95.78,1.64l.03.38-.11-.04c-.35-.11-.52-.26-.52-.47,0-.22-.15-.51-.38-.74-.22-.23-.35-.25-.38-.04-.01.09.03.18.11.29.12.15.26.41.26.51,0,.02-.06.03-.14.02-.27-.04-.15.12.37.46.37.25.65.36,1.17.47.38.08.45.08.95,0,.3-.04.73-.13.97-.2l.43-.13.08.1c.05.06.08.13.08.16,0,.07-.71.29-1.2.37-.22.03-.65.05-1.07.03-.64-.02-.75-.04-1.16-.18-.25-.09-.52-.2-.61-.25-.18-.11-.25-.12-.25-.03,0,.34,1.41.9,2.27.9.43,0,1.29-.14,1.75-.29.24-.08.44-.12.46-.1.02.02.07.11.11.21l.07.18-.3.09c-.54.17-1.46.26-2.25.23-.89-.03-1.37-.13-1.83-.36l-.36-.18-.27-.55c-.27-.55-.52-.87-.66-.87-.04,0-.09.03-.11.06-.04.1,1.06,2.26,1.24,2.44.07.07,1.01.29,3.06.72.64.13,1.44.31,1.78.38.68.15.74.16.82.11.03-.02.12-.22.2-.44.08-.22.24-.66.36-.97.12-.31.22-.59.22-.63s-.16-.44-.35-.88c-.19-.45-.39-.92-.43-1.05-.05-.13-.11-.27-.13-.3-.03-.04-.02-.14.03-.28.13-.39.08-1.12-.12-1.73-.19-.59-.75-1.34-1.29-1.74-.12-.09-.37-.22-.55-.28-.18-.06-.39-.15-.47-.19-.17-.09-.73-.23-.93-.23h0ZM47.63,34.23c-.38,0-.95.1-1.27.21-.54.2-1.26.72-1.26.91,0,.04-.02.05.53-.23.48-.24.83-.34,1.58-.42.68-.08,1.28.01,2.24.35.23.08.43.13.44.12.06-.06-.38-.36-.81-.57-.5-.24-1.04-.38-1.45-.38h0ZM59.28,34.23c.09,0,.05.07-.33.55-.37.47-.7,1.06-1.05,1.86-.14.33-.17.37-.28.37-.07,0-.18-.03-.25-.07s-.13-.1-.13-.14c0-.13.28-.69.49-.97.25-.33,1.48-1.61,1.55-1.61h0ZM78.91,34.27c.05-.02-.05.14-.33.47-.75.91-1.39,1.49-2.48,2.22-.76.51-2.35,1.34-3.31,1.72-1.63.65-2.74.89-4.57,1.01l-.4.03.83-.29c.46-.16,1.1-.36,1.43-.45,1.59-.44,3.83-1.43,5.78-2.55,1.22-.7,1.92-1.19,2.77-1.94.15-.13.24-.2.27-.21ZM60.07,34.83s-.05.12-.23.35c-.43.53-.74,1.04-1.04,1.68-.3.65-.32.66-.62.5-.1-.05-.18-.12-.2-.16-.05-.14.35-.65,1.2-1.53.53-.55.85-.84.89-.83ZM60.76,35.38s-.02.09-.11.21c-.17.21-.84,1.26-.84,1.32,0,.09-.5,1.07-.54,1.07-.03,0-.15-.07-.28-.15-.12-.08-.23-.16-.23-.18,0-.09.39-.66.67-.99.35-.41,1.26-1.27,1.34-1.27ZM47.38,35.62c.09,0-.02.19-.32.6-.53.72-.73,1.05-.91,1.54-.15.38-.42,1.51-.42,1.73,0,.09-.04.13-.22.19-.12.04-.24.08-.26.08s-.04-.14-.04-.3c0-1.41.74-2.88,1.8-3.62.2-.14.33-.21.38-.21h0ZM48.26,35.67h.14l-.35.66c-.72,1.37-.97,1.99-1.05,2.62l-.06.45h-.2c-.11.02-.21,0-.23-.03-.05-.08.02-1.03.1-1.34.17-.65.64-1.46,1.2-2.04.24-.25.34-.32.45-.32h0ZM48.95,35.77c.06,0,.38.14.38.17,0,.01-.06.15-.14.3-.08.15-.24.55-.36.88-.12.33-.32.84-.43,1.13-.11.29-.23.69-.26.88-.03.19-.06.34-.06.34,0,0-.09-.02-.2-.03-.1-.01-.21-.03-.23-.05-.05-.05.05-.78.16-1.23.1-.4.4-1.19.57-1.53.15-.3.51-.85.56-.85h0ZM61.49,36.03s.04.03-.05.13c-.21.23-.81,1.19-1.06,1.69-.3.6-.37.64-.68.43l-.18-.12.08-.15c.24-.48.9-1.21,1.6-1.79.14-.11.24-.18.29-.19h0ZM49.66,36.07s.13.03.23.08c.22.11.22.12.19.31-.01.1-.08.32-.15.48-.07.16-.23.61-.37,1.01-.14.4-.27.77-.3.84-.03.07-.1.29-.16.49-.11.4-.13.41-.42.3-.16-.06-.17-.07-.15-.27.03-.47.28-1.23.84-2.64.12-.3.24-.57.26-.6,0,0,.02,0,.03,0h0ZM45.77,36.27s-.07.13-.17.25c-.38.5-.76,1.33-.96,2.09-.09.35-.12.58-.13.99v.53s-.15.09-.15.09c-.08.05-.2.13-.27.18-.09.06-.14.07-.16.03-.08-.13-.08-.81,0-1.22.2-1.09.74-2.06,1.49-2.68.19-.16.34-.28.34-.26h0ZM50.38,36.48l.22.16c.12.09.23.18.24.19.03.04-.12.56-.5,1.82-.16.52-.31,1.04-.34,1.17-.07.27-.1.28-.45.09-.19-.1-.24-.15-.21-.2.02-.04.07-.26.12-.48.05-.22.2-.72.34-1.11.14-.38.28-.79.31-.91.03-.12.11-.33.17-.47l.11-.26ZM103.04,36.68c-.16,0-.34.2-.31.35.01.06.06.25.11.42.06.24.07.44.05.89-.04.87-.26,1.55-.68,2.04-.17.2-.72.64-1.06.87-.18.11-.25.26-.14.3.03,0,.25.22.49.46.44.44.54.5.64.38.03-.04.05-.09.04-.13,0-.03.13-.14.31-.25.82-.48,1.5-1.51,1.45-2.19v-.23s-.08.14-.08.14c-.03.08-.14.25-.24.38-.1.13-.26.35-.35.49-.52.74-1.53,1.38-1.64,1.05-.01-.02.07-.1.18-.16.34-.21.79-.8,1.07-1.41.2-.43.34-.94.38-1.38.02-.19.05-.35.06-.36.08-.05,1.35.4,1.81.65.13.07.12.18-.08.71-.21.58-.41.97-.62,1.27-.18.25-.19.39-.03.41.24.03.78-.84,1.09-1.78.19-.59.34-1.75.26-2-.05-.14-.3-.29-.64-.37-.08-.02-.41-.11-.74-.21-.74-.22-1.19-.34-1.34-.34h0ZM62.12,36.68s-.06.2-.4.75c-.23.36-.51.84-.62,1.05-.28.51-.35.55-.6.34-.11-.09-.13-.14-.1-.23.11-.36.5-.86,1.12-1.42.29-.26.55-.48.57-.49.01,0,.02,0,.03,0h0ZM79.42,36.88s-.09.05-.17.15c-.19.25-.27.64-.27,1.38,0,.69.07,1.09.31,1.91.17.56.4,1,.75,1.42.25.3.28.35.21.41-.06.06-.15,0-.74-.59-.86-.87-1.01-1.16-1.12-2.19-.05-.5-.05-.62.03-.98.05-.23.07-.42.06-.44-.05-.05-.26.19-.32.37-.04.11-.06.43-.06.87,0,.62.01.75.13,1.13.07.24.3.8.51,1.24.3.62.44.86.64,1.08.27.3.29.34.21.43-.04.04-.14-.02-.41-.24-.37-.31-.42-.36-.94-1.04-.24-.31-.34-.49-.43-.77-.19-.59-.27-1.44-.19-1.95.03-.22.03-.24-.04-.17-.19.16-.23.34-.23,1.06,0,.78.1,1.36.35,2.1.18.52.29.72.76,1.34.37.49.4.6.19.6-.1,0-1.08-1.02-1.27-1.32-.17-.28-.41-.97-.49-1.39-.03-.16-.06-.55-.08-.87-.01-.32-.04-.65-.05-.74-.04-.27-.15-.08-.21.36-.09.7.07,1.92.33,2.61.42,1.11,1.36,2.17,2.21,2.52.35.14.57.22.6.2.01,0,.21-.27.43-.58.77-1.08,1.33-1.93,1.4-2.13.14-.4.12-.44-.36-.77-.84-.58-1.45-1.44-1.71-2.43-.14-.54-.19-1.71-.08-2.1.09-.3.1-.46.04-.47h0ZM51.07,37.07s.08.08.16.19l.15.21-.03.53c-.04.59-.17,1.32-.31,1.68-.2.51-.33.82-.37.82-.02,0-.14-.06-.26-.14-.12-.08-.23-.16-.23-.18,0-.1.84-3.07.88-3.12h0ZM111.3,37.34s-.06,0-.09.01c-.08.02-.34.05-.57.07s-.64.07-.9.12c-1.45.28-1.81.33-2.33.36-.31.02-.65.03-.75.02-.28-.01-.32.04-.32.53,0,.93-.41,2.19-.91,2.76-.25.29-.05.43.25.18.34-.29.71-1.03.92-1.87,0-.03.07-.05.14-.05.12,0,.13.01.15.38.05,1.02.36,2,.86,2.8.16.25.17.27.09.36-.05.05-.07.13-.05.17.03.07.09.08.54.05.28-.02.64-.05.8-.08.37-.07,1.19-.3,1.9-.53.83-.28,1.89-.87,2.7-1.51.9-.72,1.64-1.79,1.67-2.43.01-.24,0-.25-.68-.33-.25-.03-.54-.07-.64-.1-.1-.02-.34-.06-.51-.09-.51-.09-1.45-.41-1.84-.64-.22-.13-.32-.18-.41-.18h0ZM62.74,37.4s-.17.35-.39.73c-.88,1.48-.82,1.39-1,1.35-.14-.03-.26-.16-.26-.28,0-.06.09-.22.19-.36.22-.3,1.44-1.5,1.47-1.44h0ZM110.13,37.98c.07,0,.05.04-.01.22-.04.1-.08.28-.1.39l-.03.21.23-.03c.12-.02.36-.06.51-.11.16-.04.34-.08.41-.1l.13-.02-.02.52c-.03.72.06,1.22.34,1.85.12.27.27.58.34.68l.12.18-.14.07-.14.07-.31-.37c-.19-.23-.38-.53-.49-.79-.1-.23-.21-.42-.23-.42-.1,0,.04.66.25,1.13.06.13.17.32.25.42.08.1.14.19.13.2-.01,0-.07.03-.14.05-.11.03-.16-.01-.42-.34-.32-.39-.46-.64-.52-.92-.05-.24-.18-.25-.16-.01.04.41.34,1.28.48,1.37.09.06.05.11-.09.13-.09.01-.17,0-.21-.05-.29-.34-.62-1.44-.7-2.38-.06-.63,0-1.21.18-1.69.08-.21.1-.23.24-.25.04,0,.08,0,.1,0h0ZM51.71,38.01s.05.05.09.14c.05.11.16.37.23.58.12.36.13.4.07.67-.03.16-.09.35-.12.43-.04.08-.12.36-.19.62-.13.49-.21.71-.26.71-.01,0-.14-.09-.27-.2-.13-.11-.23-.23-.23-.28,0-.04.08-.35.17-.68.09-.33.23-.87.3-1.2.12-.57.16-.77.2-.79h0ZM63.33,38.07c.09,0,.04.14-.13.35-.1.12-.33.49-.51.81-.34.6-.49.81-.61.81-.04,0-.12-.05-.19-.12-.14-.13-.15-.12.15-.61.11-.18.35-.44.71-.76.3-.26.56-.48.59-.48h0ZM75.15,38.28s-.51.41-1.13.78c-.56.34-1.15.61-1.66.78-.35.11-2.01.55-2.59.68-.48.11-1.61.15-2.39.08-.5-.04-.58-.06-.57-.12.01-.06.15-.09.66-.16,1.18-.15,2.68-.45,4.15-.83,1.08-.28,1.66-.48,2.8-.95.39-.16.73-.28.74-.27h0ZM107.6,38.34s.08.02.08.05c-.15.84-.15.83.04.83.08,0,.27-.03.42-.07.26-.07.35-.08.84-.15l.24-.03.03.64c.04.86.22,1.7.49,2.36.12.29.2.54.18.56-.02.02-.09.05-.15.07-.08.03-.13-.01-.27-.19-.19-.26-.62-1.11-.69-1.41-.06-.22-.19-.28-.19-.09,0,.34.3,1.2.56,1.64l.1.17-.2.03c-.15.02-.22.01-.28-.05-.13-.12-.47-.86-.55-1.22-.04-.18-.08-.35-.09-.38-.01-.03-.05-.06-.09-.06-.07,0-.07.04-.05.26.04.34.24,1,.39,1.27.06.12.11.22.11.22s-.05.02-.12.03c-.07.01-.14,0-.18-.05-.12-.14-.39-.65-.54-1.01-.27-.65-.44-1.54-.44-2.23,0-.47.12-1.1.21-1.17.04-.03.1-.04.15-.04ZM111.69,38.55s.23.14.47.31c.7.49,1.63.89,2.08.89.1,0,.18.02.18.04s-.06.12-.14.22c-.12.15-.15.16-.2.1-.03-.04-.09-.07-.13-.07-.09,0-.14.14-.07.21.09.09.06.15-.11.26l-.16.11-.12-.15c-.06-.08-.17-.26-.25-.39-.17-.3-.22-.37-.27-.33-.08.05-.04.25.17.7.22.49.22.51,0,.63-.07.04-.71-.9-.76-1.1-.06-.27-.08-.31-.13-.31-.07,0-.02.65.08,1.01.04.14.13.36.21.49l.14.23-.17.1c-.09.05-.19.1-.21.1s-.13-.18-.23-.4c-.23-.51-.27-.64-.36-1.19-.07-.43-.1-1.44-.05-1.44h0ZM64.07,38.79s.01.03-.04.1c-.05.06-.14.21-.21.32-.29.48-.83,1.28-.91,1.35-.04.04-.12.07-.18.06-.06,0-.14-.07-.18-.14-.07-.11-.07-.13,0-.26.08-.17,1.38-1.42,1.49-1.44.02,0,.03,0,.04,0h0ZM64.68,39.53s-.88,1.48-1.02,1.64c-.15.17-.23.18-.37.06-.12-.11-.13-.12-.06-.27.1-.24,1.38-1.5,1.45-1.43h0ZM52.24,39.8c.09,0,.09,1.1,0,1.63-.08.47-.1.48-.3.21-.11-.14-.16-.26-.15-.31.06-.16.4-1.41.4-1.48,0-.04.02-.07.05-.07h0ZM76.03,39.92c-.11,0-.13.03-.21.34-.16.63-.06,1.83.24,2.72.23.68.64,1.38,1.11,1.9l.19.21-.15.17c-.08.1-.17.17-.19.16-.02,0-.22-.23-.45-.49-.56-.66-.89-1.36-1.09-2.28-.11-.49-.15-1.76-.08-2.18.03-.18.05-.34.03-.35-.01-.01-.07.01-.14.06-.16.11-.23.48-.23,1.26,0,.86.11,1.58.37,2.37.3.91.46,1.26.78,1.74.15.23.28.44.28.46s-.05.08-.11.12c-.11.07-.12.07-.3-.13-.43-.45-.74-1.04-1.05-1.98-.34-1.02-.41-1.45-.41-2.54,0-.52-.01-.95-.03-.95-.25,0-.3,1.85-.09,3.29.11.72.14.87.31,1.4.15.45.35.91.59,1.32.19.33.22.48.11.51-.13.04-.82-.96-1.21-1.76-.14-.28-.29-.94-.38-1.68-.09-.69-.07-2.06.03-2.47.09-.35.05-.49-.09-.37-.24.2-.41,2.65-.27,3.68.12.85.61,2.34.99,3.04.1.19.15.33.13.38-.03.07-.07.05-.24-.15-.39-.44-.68-.87-.83-1.26-.17-.44-.39-1.44-.47-2.18-.1-.94-.04-2.3.13-3,.04-.18.07-.34.05-.35-.09-.06-.23.14-.3.44-.09.38-.27,1.55-.27,1.78,0,.09-.02.16-.05.16-.13,0-.02,1.55.17,2.47.27,1.3.99,2.78,1.79,3.63.23.25.63.57.72.58.02,0,.2-.14.4-.33.5-.45,1.28-1.24,1.75-1.76.98-1.11,1.76-2.03,1.73-2.06-.01,0-.12-.06-.25-.12-.35-.16-1.17-.71-1.45-.98-.5-.49-.91-1.13-1.15-1.82-.3-.85-.38-1.61-.33-2.77.01-.2,0-.22-.11-.22h0ZM47.42,40.34c-.13,0-.25,0-.39,0-1.28.05-2.19.44-3.03,1.29-.31.32-.57.72-.57.88,0,.18.14.32.3.3.12-.01.17-.05.25-.22.25-.53,1.23-1.23,2.07-1.49,1.01-.31,2.2-.25,3.23.16.67.27,1.18.63,1.78,1.23.48.49.57.56.67.54.06-.02.13-.05.15-.08.06-.06-.04-.35-.24-.65-.24-.37-1.06-1.01-1.71-1.33-.88-.44-1.64-.64-2.52-.65h0ZM86.47,40.87c.06.07.21.44.19.47-.04.07-.6.24-.95.29-.32.05-.67.05-1.12.02-.21-.02-.68-.11-1.55-.3-.24-.05-.55-.12-.69-.15-.23-.05-.47-.21-.41-.27.01-.01.19.03.39.1.58.18,1.02.24,1.85.25.85,0,1.27-.06,1.87-.27.22-.08.4-.13.41-.13h0ZM72.62,41.2s-.03,0-.04,0c-.07.01-.14.16-.29.61-.25.76-.42,1.58-.5,2.41-.14,1.63.23,3.46.99,4.81l.22.39-.15.14-.15.14-.08-.11c-.17-.22-.81-1.59-.97-2.06-.09-.27-.23-.78-.3-1.13-.12-.57-.13-.74-.13-1.65,0-1.17.08-1.74.4-2.81.1-.34.19-.65.19-.68s-.04-.05-.09-.05c-.07,0-.13.1-.28.49-.31.81-.45,1.43-.51,2.27-.01.24-.04.55-.05.7-.03.41.07,1.89.17,2.48.19,1.1.46,1.97.86,2.77.14.27.14.29.06.38-.04.05-.11.09-.14.09-.11,0-.78-1.25-1.04-1.95-.33-.88-.52-2-.52-2.98,0-.37.01-.73.02-.79.01-.07,0-.13-.03-.14-.03-.01-.08.2-.13.53-.07.44-.08.74-.06,1.44.03,1.06.08,1.45.29,2.31.17.67.33,1.16.59,1.77l.15.35-.15.08c-.15.08-.15.08-.26-.06-.06-.08-.23-.36-.38-.63-.15-.27-.28-.49-.29-.47-.05.05.08.98.18,1.28.11.34.46.9.71,1.14.23.22.56.4.74.4.1,0,.34-.1.69-.29.29-.16.6-.35.68-.41.08-.06.4-.31.71-.55.76-.59,1.16-.92,1.16-.98,0-.03-.2-.25-.45-.5-.62-.62-1.06-1.29-1.56-2.39-.81-1.79-.87-3.3-.23-6.26.01-.07.01-.1-.02-.1h0ZM88.55,41.25c-.08,0-.15.01-.19.06-.05.07-.31.96-.36,1.24-.01.09-.01.37.01.62.02.25.04.46.03.47,0,0-.37-.07-.82-.18-.44-.11-1.12-.26-1.52-.34-.39-.08-.93-.21-1.19-.29-.26-.08-.57-.15-.68-.17l-.2-.03-.1.23c-.33.78-.72,1.33-1.08,1.5-.19.09-.24.2-.16.36.03.06.1.22.15.37.14.38.53,1.15.79,1.54.4.6.89,1.14,1.63,1.79.87.76,1.19,1.09,1.75,1.85.54.72,1.02,1.55,1.46,2.53.35.79.45.91.58.73.07-.1.05-.19-.22-.82-.42-1-.91-1.87-1.55-2.72-.44-.59-.77-.94-1.43-1.55-.97-.9-1.52-1.59-2.02-2.53-.24-.45-.46-1-.41-1.04.04-.04.12.04.26.29.33.59,1.11,1.46,2.5,2.83.78.77,1.9,2.2,2.3,2.97.38.73.78,1.59.98,2.15.1.26.2.52.22.56.04.08.28.12.28.04h0c0-.05-.31-.96-.53-1.56-.24-.66-.95-2.06-1.36-2.67-.42-.64-.84-1.14-1.54-1.9-.63-.67-1.35-1.49-1.8-2.06-.35-.44-1.01-1.4-1.01-1.46,0-.04.17-.25.2-.25.01,0,.1.11.18.25.43.68,1.1,1.43,2.02,2.26.84.76,1.78,1.83,2.3,2.62.14.22.27.39.28.38.05-.05-.23-.62-.58-1.16-.47-.73-.86-1.22-1.56-1.98-.49-.53-1.05-1.25-1.5-1.91-.2-.29-.6-1.11-.57-1.15.01-.01.09,0,.18.03.13.04.2.12.35.37.44.74,1.39,1.85,2.11,2.45.28.24.56.46.62.49l.11.06-.1-.21c-.12-.23-.12-.23-.84-1.12-.76-.93-1.29-1.68-1.23-1.73.01-.01.11,0,.22.02.16.04.29.15.78.65.32.33.63.61.67.61.12,0,.1-.18-.06-.5-.13-.26-.18-.46-.11-.46.08,0,1.19.3,1.21.33.02.02.07.15.11.3.05.15.18.51.3.82.12.3.31.86.43,1.23.58,1.8,1.1,3.09,1.81,4.45.36.69,1.01,1.69,1.08,1.67.03,0,.15-.14.27-.3.35-.43.34-.5-.05-1.33-1.23-2.59-1.87-4.29-2.79-7.49-.13-.46-.33-1.36-.37-1.74-.02-.14-.05-.3-.08-.35-.03-.05-.1-.08-.18-.09h0ZM70.99,41.31c-.11,0-.45.09-.52.14-.2.16-.81,1.66-1.12,2.77-.51,1.81-.68,2.97-.64,4.25.03.93.12,1.63.32,2.43.24.99.52,1.53,1.03,2.01.36.34.42.38.71.51.31.13.45.12.63-.04.28-.26.23-.43-.11-.39-.27.04-.61-.14-.9-.46-.23-.26-.61-1.08-.79-1.71-.41-1.44-.44-3.52-.07-5.3.2-.98.88-2.98,1.26-3.71.14-.26.24-.49.22-.5,0,0-.01,0-.03,0h0ZM47.19,41.42c-.82-.02-1.61.26-2.48.84l-.36.25v.41c0,.36.12,1.68.16,1.72.01,0,.12-.06.25-.16.3-.22,1.21-.66,1.7-.82.36-.12.42-.13,1.07-.1,1.13.04,2.03.37,2.72.99l.24.21-.03.24c-.02.13-.05.59-.07,1.01-.02.42-.05.77-.07.78-.01.01-.11-.04-.23-.11-.55-.35-1.53-.63-2.35-.68-.29-.02-.54-.05-.56-.08-.02-.04-.12-.03-.33.01-.17.04-.35.08-.41.09-.22.05-.1-.12.3-.39.38-.26.42-.28.83-.32.43-.05.96-.01,1.21.09.2.08.27.07.27-.05,0-.12-.15-.19-.72-.34-.39-.1-.43-.11-1.02-.05-.34.03-.65.06-.7.06-.05,0-.2.05-.35.12-.17.08-.26.1-.25.06.03-.1.51-.44.88-.64.3-.16.4-.18.79-.2.37-.02.49,0,.75.08.17.06.33.09.37.08.13-.05.06-.18-.14-.26-.74-.32-1.47-.33-2.22-.03-.25.1-.54.22-.64.27-.36.18-1.06.62-1.14.71-.09.1-.09.05.14,1.81.04.29.07.56.07.59,0,.03.01.06.02.06.01,0,.2-.14.41-.31.4-.32.75-.51,1.29-.71.43-.15,1.26-.15,1.87,0,.58.15,1.15.39,1.6.68.21.13.41.23.44.22.19-.07.22-.24.28-1.36.08-1.53.07-3.5,0-3.58-.12-.12-.19.06-.24.61-.03.29-.05.63-.05.76,0,.13-.01.23-.02.23-.01,0-.15-.09-.31-.2-.37-.25-1.31-.64-1.77-.73-.57-.12-1.64-.18-1.99-.12-.17.03-.32.04-.33.02-.07-.07.28-.27.76-.43.65-.21.81-.22,1.78-.04.12.02.15.01.15-.04,0-.12-.1-.17-.59-.3-.59-.16-1.46-.18-1.92-.06-.36.1-.35.1-.35,0s.63-.41.98-.49c.32-.08,1.14-.09,1.37-.01.18.06.32.05.32-.04,0-.09-.32-.21-.81-.3-.19-.03-.38-.05-.57-.06h0ZM86.88,41.63s.28.54.28.6c0,.03,0,.03-.64-.12-.31-.07-.58-.14-.59-.14-.01,0,.1-.04.25-.07.15-.04.36-.11.47-.16.11-.05.21-.1.23-.1h0ZM106.72,41.85s-.01,0-.01,0c-.09.06.07.55.18.55.04,0,.07-.04.07-.1,0-.13-.16-.45-.23-.45h0ZM66.68,41.88c-.05-.01-.1.05-.26.29-.11.17-.33.46-.47.66-.14.2-.49.7-.78,1.12-.28.42-.75,1.11-1.04,1.54-.29.43-.74,1.06-1.01,1.4-.48.62-.49.63-.48.88.02.67.66,1.81,1.61,2.84.67.73,1.7,1.48,2.78,2.03.71.36,1.67.72,1.92.73.09,0,.26.03.37.07.12.03.23.06.24.07.02,0,.06-.03.09-.07.07-.08.01-.19-.26-.5-.21-.24-.4-.6-.64-1.21-.37-.96-.58-2.07-.51-2.81.04-.46-.01-.58-.27-.63-.26-.04-1-.34-1.55-.62-.46-.23-1.29-.81-1.84-1.29l-.35-.3.08-.13c.04-.07.1-.13.12-.13.04,0,.69.37,1.36.79.46.29,2.09,1.1,2.3,1.16.14.04.23-.07.23-.28,0-.16-.08-.22-.75-.56-.7-.35-1.25-.68-2.08-1.23-.34-.23-.64-.42-.66-.43-.03,0,.02-.12.11-.24.08-.12.17-.22.19-.21.02.01.27.16.56.32.29.17.69.42.9.55.49.32.65.4,1.25.62.41.15.5.17.56.12.04-.03.07-.12.06-.19-.01-.11-.11-.18-.73-.51-.39-.21-.97-.55-1.28-.75-.31-.2-.67-.42-.79-.49-.12-.07-.23-.15-.23-.18s.06-.13.13-.24l.13-.19.24.15c.34.2,1.1.59,1.44.74.59.25,1.03.46,1.08.51.03.03.1.05.16.05.09,0,.11-.03.11-.14,0-.13-.04-.16-.61-.44-.33-.17-.82-.43-1.08-.58-.26-.15-.61-.34-.77-.42-.16-.08-.31-.17-.32-.2-.02-.04.19-.46.29-.57.02-.03.52.18.95.39,1.13.57,1.86.81,1.95.66.05-.08-.03-.2-.15-.23-.07-.02-.47-.2-.89-.4-.42-.2-.96-.45-1.2-.56-.24-.1-.44-.2-.44-.22,0-.02.09-.18.19-.35.15-.25.18-.33.13-.36-.02-.02-.04-.03-.06-.03h0ZM104.48,42.04c-.58,0-.68.01-1.02.13-.49.17-.95.4-1.08.54-.09.1-.09.13-.05.24.07.16.58.75,1.12,1.29.24.24.51.54.62.67.18.23.19.23.38.21.11-.02.36-.08.55-.14.69-.22,1.38-.65,1.91-1.18.46-.45.47-.54.14-.81-.45-.38-1.02-.67-1.68-.87-.18-.05-.45-.08-.9-.08h0ZM67.42,42.15s-.01,0-.02,0c-.07.07.01.13.43.31.23.1.56.25.74.34.38.19.79.23.79.08,0-.06-.13-.14-.51-.29-.63-.25-1.31-.46-1.44-.45h0ZM104.39,42.82c.34,0,.65.01.83.05.3.07,1.05.43,1.24.6l.14.12-.14.12c-.16.14-.18.14-.25.06-.08-.1-.49-.31-.82-.42-.38-.13-1.35-.18-1.69-.1-.22.06-.22.05-.38-.1-.09-.08-.15-.17-.14-.19.05-.09.66-.14,1.22-.15h0ZM104.31,43.59c.33,0,.74.03.95.09.29.07.78.28.78.33,0,0-.09.07-.19.14-.21.14-.31.15-.45.07-.16-.09-.65-.18-1.01-.18-.34,0-.34,0-.49-.19-.14-.18-.15-.19-.05-.22.08-.02.25-.04.45-.04h0ZM104.43,44.37h.11c.17,0,.65.1.65.14,0,.03-.41.2-.48.2-.01,0-.08-.08-.16-.17l-.13-.17ZM63.75,46.77s.18.1.34.23c.56.42,1.06.73,1.57.96.28.13.63.32.78.42.16.1.54.32.85.49l.57.3h-.26c-.14,0-.33-.02-.4-.03-.85-.12-2.84-1.18-3.49-1.86l-.21-.22.1-.15c.06-.08.12-.15.14-.15h0ZM47.5,47.17c-.39,0-.79.02-.95.07-.67.21-1.5.67-1.6.9-.04.08-.01.3.08.84.07.41.11.78.1.83-.07.23.15.24.45.04.47-.32,1.11-.68,1.34-.75.21-.06.23-.08.23-.21,0-.08-.02-.14-.04-.14s-.24.07-.48.14c-.24.08-.45.14-.46.14s-.02-.04-.02-.1c0-.12.41-.36.73-.43.13-.03.26-.07.3-.1.03-.03.32-.06.63-.08.45-.02.57-.04.57-.09,0-.15-.32-.21-1.02-.2-.59.01-.7.03-.88.13-.2.11-.34.11-.34.01,0-.04.45-.39.68-.52.37-.21.44-.22,1.03-.23.33,0,.6-.03.62-.05.01-.02-.04-.07-.12-.11-.1-.05-.48-.08-.86-.09h0ZM49.93,47.9c-.22,0-.85.31-2.59,1.31-.3.17-.82.46-1.14.65-.58.33-1.42.93-1.55,1.11-.03.05-.05.12-.04.16.04.11.22.07.52-.11.84-.52,1.26-.76,1.82-1.05.34-.17.64-.32.66-.32.05,0,.25.52.25.63,0,.14-.31.36-.83.57-.83.34-2.01.94-2.1,1.07-.08.13-.06.27.05.27.04,0,.18-.06.31-.12h0c.38-.19,1.42-.57,2.28-.82l.78-.23h1.12c1.31,0,1.64.04,2.32.31.52.2.61.21.69.08.05-.08.01-.14-.54-.83-.11-.13-.27-.35-.36-.48-.09-.13-.31-.44-.48-.67-.17-.24-.37-.55-.45-.7-.19-.38-.54-.8-.7-.84-.01,0-.02,0-.04,0h0ZM49.68,48.75c.17,0,.35.03.48.09.37.16.35.25-.04.19-.13-.02-.41-.04-.63-.04-.43,0-.53-.07-.28-.17.12-.05.29-.07.47-.07h0ZM50.08,49.45c.27,0,.35.03.5.11.24.12.4.27.34.3-.02.01-.16-.02-.3-.07-.44-.15-1.37-.19-2.05-.08-.05,0-.09,0-.1-.03-.01-.11.64-.23,1.26-.23.14,0,.25,0,.34,0h0ZM43.9,50.07c-.09.02-.41.55-.41.7,0,.15.18.86.43,1.67.21.7.2.76-.11.71-.25-.04-.39-.17-.56-.53-.15-.32-.16-.48-.08-.89.03-.15.04-.31.02-.36-.03-.08-.04-.08-.12,0-.05.04-.15.2-.23.35-.12.24-.14.32-.13.68,0,.34.03.46.15.77.08.2.23.47.32.6.36.51.95.88,1.31.83.1-.02.15,0,.17.06.14.42.2.45.45.31.08-.05.15-.12.16-.17.02-.07-.44-1.6-.84-2.8-.03-.08-.14-.53-.26-1.01-.12-.48-.23-.88-.25-.91,0,0-.01,0-.01,0h0ZM49.62,50.07c.62,0,.73.02,1.09.14.39.13.82.35.82.43,0,.05.05.06-.76-.14-.61-.15-.77-.17-1.42-.17-.4,0-.73-.02-.73-.04s.07-.07.15-.12c.13-.07.27-.08.84-.08ZM51.74,51.68c-.14,0-.16.03-.41.54-.14.29-.3.56-.35.59-.06.04-.12.03-.24-.04-.68-.4-.96-.47-2.06-.56-1.2-.09-2.13.05-2.95.45-.61.3-.57.26-.47.6.1.32.16.36.37.2.43-.34,1.38-.61,2.32-.66l.64-.03.12.19c.07.1.39.47.71.81.81.87,2.14,2.39,2.68,3.05l.45.56-.2.23-.2.23-.26-.32c-.45-.56-1.47-1.75-2.17-2.52-.37-.41-.78-.87-.91-1.01-.21-.24-.82-.83-1.02-.99-.06-.05-.12-.05-.29.01-.47.16-.46.13-.04.57.48.5,1.12,1.19,2.09,2.25,1.27,1.39,1.68,1.85,1.96,2.19l.27.32-.07.16c-.04.09-.1.16-.13.16-.05,0-3.2-3.18-4.34-4.39-.34-.36-.66-.66-.7-.66-.06,0-.28.3-.6.83l-.11.18.42.42c.55.56,1.12,1.16,1.72,1.84.55.62.86.93,1.38,1.42.93.86,1.64,1.55,1.89,1.85.28.34.34.37.44.27.03-.03.06-.15.06-.26,0-.63.67-1.79,1.33-2.29.3-.23.47-.31.8-.38.13-.03.26-.08.29-.12.04-.05-.12-.31-.78-1.19-.99-1.35-1.49-1.96-1.97-2.42l-.36-.34.1-.15c.06-.08.28-.43.48-.78.36-.6.38-.64.3-.73-.05-.05-.14-.09-.23-.08h0ZM92.8,52.02s-.05,0-.08,0c-.14.01-.17.05-.35.4-.41.81-1.4,1.6-2.25,1.8-.26.06-1.36.03-1.63-.05-.07-.02-.15-.02-.17,0-.07.05,0,1.38.08,1.47.08.09.14.09.24,0,.07-.06.11-.06.38,0,.91.22,2.26-.14,2.65-.71.07-.1.07-.11-.01-.07-.42.18-1.3.33-1.9.33-.66,0-1.08-.11-1.11-.29-.01-.09.01-.1.45-.1.97,0,1.91-.38,2.77-1.11l.25-.22.09.12c.05.06.26.46.47.89.33.68.37.78.31.87-.13.2-1.36.77-1.86.86-.21.04-.31.1-.31.2,0,.16.45.16.96,0h0c.41-.13,1.18-.52,1.49-.75.41-.3,1.07-.95,1.13-1.09.04-.1.02-.17-.09-.39-.29-.57-1.12-1.88-1.31-2.06-.06-.06-.12-.09-.19-.1h0ZM49.13,52.82l.21.03c.67.11.68.11,1.44.88.84.85,1.51,1.63,2.11,2.46.24.33.44.62.44.63,0,.02-.35.24-.39.24-.01,0-.07-.07-.13-.16-.06-.09-.29-.35-.5-.58-.21-.24-.61-.69-.88-1.01-.55-.65-1.58-1.77-2.02-2.21l-.28-.28ZM94.61,55.33s-.22.15-.38.33c-.63.69-1.92,1.4-2.54,1.4-.18,0-.24.12-.13.23.1.1.4.1.79,0,.35-.09.64-.22,1.11-.51.32-.2.33-.2.42-.11.09.09.09.1-.09.31-.27.31-.55.75-.79,1.23-.21.42-.45,1.1-.45,1.27,0,.05-.02.2-.05.33-.04.21-.07.24-.16.24-.13,0-.18.06-.14.15.03.08.63.56.95.77.58.38,2.12,1.1,2.69,1.26.71.2,1.71.36,2.58.41.07,0,.37-.03.67-.07.3-.04.64-.1.78-.14.47-.13,1.12-.51,1.12-.65,0-.02-.16-.22-.34-.44-.9-1.05-1.55-2.08-1.76-2.77-.08-.26-.14-.38-.22-.43-.07-.04-.28-.2-.48-.35-.2-.15-.61-.43-.93-.62-.31-.19-.74-.45-.94-.58-.36-.22-.99-.7-1.39-1.06-.11-.1-.24-.18-.28-.18h0ZM88.51,56.1c-.1,0-.13.02-.19.11-.07.11-.08.27-.06,1.55.02,1.33.03,1.43.11,1.5.14.11.93.48,1.16.54.62.17,1.36.23,1.94.16.31-.04.36-.12.29-.55-.18-1.12-.81-2.13-1.7-2.73-.34-.23-1.05-.51-1.42-.56-.05,0-.1-.01-.13-.01h0ZM95.14,56.29s.08.04.13.09c.08.08.07.1-.1.21-.21.14-.49.41-.49.46,0,.02.14.12.32.22.18.1.48.3.68.43.2.13.36.25.37.25.01,0-.1.15-.25.31-.35.39-.93,1.26-1.14,1.72-.09.2-.21.53-.28.73-.12.38-.13.4-.32.32-.11-.04-.11-.06-.08-.37.03-.31.2-.94.39-1.46.09-.24.06-.35-.05-.23-.11.11-.45.77-.55,1.07-.05.15-.11.37-.12.49-.02.12-.05.22-.06.22-.02,0-.1-.04-.19-.1-.16-.1-.16-.1-.13-.34.05-.35.28-1.01.45-1.3.11-.18.13-.26.09-.3-.04-.04-.08-.02-.17.09-.16.19-.52.96-.6,1.25-.08.3-.06.29-.2.2l-.12-.08.09-.42c.22-1.01.71-1.98,1.4-2.74.26-.29.81-.73.91-.73h0ZM59.08,56.48s-.16.06-.32.14-.49.18-.72.23l-.43.09.03.14c.07.33.67.94.94.94.1,0,.15-.05.25-.26.07-.14.16-.27.2-.28.06-.01.07-.11.08-.51,0-.27,0-.49-.02-.49h0ZM59.41,56.5c-.09,0-.12.39-.03.72.06.24.05.24.59.06.23-.07.31-.12.37-.25.05-.08.08-.22.07-.3l-.02-.14-.46-.03c-.25-.02-.48-.04-.51-.06,0,0-.01,0-.02,0h0ZM88.91,56.82c.13,0,1.09.75,1.38,1.09.32.36.6.96.74,1.57.03.13.02.13-.17.13h-.2l-.08-.32c-.05-.18-.17-.48-.28-.66-.24-.4-.83-1.01-1.17-1.21-.24-.14-.25-.14-.25-.37,0-.13.02-.23.04-.23h0ZM57.3,57.01s-.21.18-.39.4c-.18.22-.48.56-.68.75l-.35.35-.4-.14c-.36-.12-.39-.15-.37-.24.04-.15-.15-.33-.42-.4-.16-.04-.28-.05-.54,0-.28.05-.4.1-.73.33-.55.38-1,1.05-1.2,1.77-.11.42-.12.68-.01,1.05.09.29.26.49.61.67.17.09.44.1.47.02h0c.03-.1-.05-.22-.18-.25-.07-.02-.17-.11-.23-.21-.35-.55-.05-1.74.59-2.34.35-.33.59-.46.92-.49l.25-.03-.23.15c-.29.2-.63.58-.78.87-.12.24-.26.61-.26.7,0,.03.14.1.31.16.17.06.53.19.8.3.43.18,2.28.81,2.3.79,0,0,0-.14-.02-.31l-.03-.3-.23-.05c-.23-.05-1.18-.36-1.5-.49-.53-.21.49-.17,1.24.05.28.08.53.14.56.12.03-.02.05-.07.05-.11s.08-.26.19-.47c.22-.46.63-.93,1.08-1.22l.31-.21-.18-.09c-.41-.2-.72-.56-.84-.97-.03-.1-.08-.18-.11-.18h0ZM97.19,57.7s.07.02.12.06l.11.09-.32.21c-.17.12-.32.23-.33.26-.01.06.43.35.75.5.12.06.23.13.25.17.01.03-.13.22-.31.42-.62.66-.95,1.3-1.15,2.28-.05.23-.06.24-.17.21-.11-.03-.12-.04-.13-.46-.01-.35.01-.51.11-.86.07-.24.14-.48.15-.53.02-.06,0-.08-.04-.07-.12.04-.52.91-.6,1.31-.04.21-.08.39-.08.39,0,0-.06,0-.12-.02-.11-.03-.11-.04-.09-.59.01-.52.03-.58.18-.89.16-.33.17-.4.04-.35-.11.04-.59,1.06-.63,1.33l-.03.24-.14-.08c-.17-.1-.17-.15-.01-.65.38-1.21,1.34-2.46,2.24-2.92.1-.05.15-.08.19-.08h0ZM88.87,57.73l.14.07c.22.12.67.53.89.83.31.42.53.93.39.91-.04,0-.15-.02-.24-.03-.16-.02-.19-.05-.28-.22-.15-.31-.5-.73-.71-.88-.18-.13-.19-.14-.19-.41v-.28ZM58.97,58.36c-.25.01-.49.17-.91.58-.8.76-1.06,1.53-.86,2.47.09.4.18.61.43.94.2.27.24.29.56.39.19.06.4.12.46.14.22.07.37.05.45-.06.09-.14.14-.41.29-1.53.19-1.39.26-2.01.26-2.39v-.35s-.18-.08-.18-.08c-.1-.04-.28-.09-.4-.1-.04,0-.07,0-.11,0h0ZM92.25,58.4c-.07,0-.25.38-.22.46.04.12.12.07.19-.11.08-.2.09-.35.03-.35h0ZM61.26,58.6l-.14.02c-.08.01-.3.03-.5.05-.25.02-.37.05-.42.11-.06.09-.08.79-.02.85.02.02.09.02.15,0,.07-.02.3-.05.52-.08l.4-.05v-.45s0-.45,0-.45ZM62.08,58.6c-.46,0-.52,0-.56.09-.07.13-.06.5.01.66.06.13.07.13.37.1.17-.02.4-.03.5-.03h0s.19,0,.19,0v-.41s.01-.41.01-.41h-.52ZM63.12,58.6c-.28-.01-.29.04-.29.41,0,.35.03.41.22.38.09-.01.28-.03.43-.05.32-.03.43-.13.41-.36-.02-.24-.2-.34-.63-.37-.05,0-.1,0-.14,0h0ZM88.87,58.68l.12.12c.12.12.4.49.4.55,0,.04-.05.03-.3-.08l-.23-.1v-.49ZM98.15,59.32s.01,0,.01,0c.01.01.08.27.15.57.2.84.57,1.65.97,2.09l.12.13-.14.03c-.35.08-.35.08-.35-.01,0-.05-.02-.11-.05-.14-.08-.08-.18-.02-.18.11,0,.12-.09.15-.32.08-.13-.04-.14-.22-.03-.7.06-.24.07-.35.03-.39-.08-.08-.23.2-.38.69-.13.42-.13.42-.28.42-.13,0-.16-.02-.16-.1,0-.29.16-1.15.25-1.33.13-.26.08-.31-.1-.11-.24.26-.54.84-.59,1.15-.05.29-.06.29-.2.26-.3-.06-.31-.07-.28-.21.11-.48.35-1.02.64-1.47.29-.44.8-1.06.9-1.09h0ZM60.39,59.85c-.31,0-.35.06-.35.52,0,.5.07.53.8.46l.29-.03-.03-.22c-.02-.13,0-.31.04-.44l.07-.22-.29-.03c-.16-.02-.4-.03-.54-.03h0ZM61.76,59.9c-.12,0-.2,0-.22,0-.12.02-.24.47-.19.72.04.2.05.21.8.21h.46s.02-.34.02-.34c.01-.19.04-.39.06-.44.03-.1.02-.1-.51-.14-.15,0-.3-.02-.41-.02h0ZM62.95,59.98l-.06.26c-.08.38-.05.58.09.63.12.03.51.02.77-.04.17-.03.24-.17.2-.4-.05-.3-.19-.39-.63-.42l-.38-.03ZM57.49,60.52s.05,0,.08.01c.2.04.48.17.48.23,0,.05-.17.05-.43,0h0c-.13-.02-.17-.06-.18-.14-.01-.08,0-.1.05-.1ZM53.34,60.68s0,.1.03.2c.05.2.08.22,1.1.65.33.14,2.5.91,2.66.95.01,0,0-.03-.02-.08-.02-.05-.08-.22-.14-.4l-.11-.31-.28-.09c-.15-.05-.8-.23-1.43-.4-.63-.17-1.29-.36-1.47-.43-.18-.07-.33-.11-.34-.1h0ZM60.21,61.15c-.09,0-.15,0-.18,0-.13.03-.22.28-.24.65-.01.28.06.32.61.31h.42s-.01-.27-.01-.27c0-.16.02-.34.06-.45.04-.1.07-.19.06-.2-.03-.03-.46-.06-.72-.06h0ZM61.28,61.3c-.09.01-.13.06-.18.21-.06.19-.05.57.01.64.02.02.24.05.49.08l.46.05.04-.17c.02-.09.06-.26.08-.38.03-.12.04-.22.03-.23-.04-.05-.83-.21-.93-.2h0ZM57.64,61.55c.14,0,.97.34.97.39,0,.02-.4.02-.68-.01-.15-.02-.19-.05-.26-.18-.04-.09-.06-.18-.05-.19,0,0,.01,0,.02,0h0ZM62.64,61.58c-.11,0-.15.03-.2.17-.09.23-.13.43-.1.52.04.11.82.11.97,0,.12-.08.14-.33.05-.47-.06-.09-.49-.22-.72-.22h0ZM59.79,62.4s-.04,0-.05,0c-.11.04-.17.23-.17.49,0,.24.01.25.3.31.38.08.42.07.42-.11,0-.09.04-.25.09-.36.05-.11.08-.21.06-.22-.07-.05-.49-.12-.64-.12h0ZM60.79,62.64c-.14,0-.38.66-.24.67.02,0,.21.04.42.09.21.05.4.09.42.09.02,0,.04-.02.05-.05.01-.05.1-.43.13-.57.01-.05-.58-.23-.79-.24h0ZM61.93,62.92c-.09,0-.23.3-.23.48,0,.12.02.15.13.17.07.02.15.04.18.05.12.04.49.02.54-.03.08-.08.07-.21-.02-.35-.07-.11-.47-.32-.6-.32h0Z"/>
      <g id="g6544">
        <ellipse id="circle6503" class="cls-1" cx="105.94" cy="53.89" rx="1.05" ry="1.06"/>
        <path id="path6505" class="cls-1" d="M112.08,55.44l-.77,2.89-1.63.62,1.63.61.77,3.45.77-3.45,1.63-.61-1.63-.62-.77-2.89Z"/>
        <path id="path6507" class="cls-1" d="M77.71,59.74l-.77,2.89-1.63.62,1.63.62.77,3.45.77-3.45,1.63-.62-1.63-.62-.77-2.89Z"/>
        <path id="path6509" class="cls-1" d="M103.53,15.24l-.77,2.89-1.63.61,1.63.62.77,3.45.77-3.45,1.63-.62-1.63-.61-.77-2.89Z"/>
        <path id="path6511" class="cls-1" d="M57.08,11.78l-.77,2.89-1.63.62,1.63.61.77,3.45.77-3.45,1.63-.61-1.63-.62-.77-2.89Z"/>
        <path id="path6513" class="cls-1" d="M32.3,45.57l-.77,2.89-1.63.62,1.63.61.77,3.45.77-3.45,1.63-.61-1.63-.62-.77-2.89Z"/>
        <ellipse id="circle6515" class="cls-1" cx="105.94" cy="53.89" rx="1.05" ry="1.06"/>
        <ellipse id="circle6517" class="cls-1" cx="118.21" cy="47.73" rx=".84" ry=".85"/>
        <ellipse id="circle6519" class="cls-1" cx="98.85" cy="28.43" rx=".84" ry=".85"/>
        <ellipse id="circle6521" class="cls-1" cx="77.61" cy="12.36" rx="1.05" ry="1.06"/>
        <ellipse id="circle6523" class="cls-1" cx="35.97" cy="40.09" rx=".84" ry=".85"/>
        <ellipse id="circle6525" class="cls-1" cx="27.96" cy="60.22" rx="1.05" ry="1.06"/>
        <ellipse id="circle6527" class="cls-1" cx="40.74" cy="65.93" rx=".84" ry=".85"/>
        <ellipse id="circle6529" class="cls-1" cx="81.16" cy="53.3" rx=".84" ry=".85"/>
        <ellipse id="circle6531" class="cls-1" cx="58.05" cy="51.53" rx="1.05" ry="1.06"/>
        <ellipse id="circle6533" class="cls-1" cx="110.95" cy="30.7" rx="1.05" ry="1.06"/>
        <path id="path6536" class="cls-1" d="M72.74,0l-.77,2.89-1.63.61,1.63.62.77,3.45.77-3.45,1.63-.62-1.63-.61-.77-2.89Z"/>
        <ellipse id="circle6538" class="cls-1" cx="62.45" cy="8.82" rx=".84" ry=".85"/>
        <ellipse id="circle6540" class="cls-1" cx="48.12" cy="7.95" rx="1.05" ry="1.06"/>
        <ellipse id="circle6542" class="cls-1" cx="96.88" cy="11.2" rx=".84" ry=".85"/>
      </g>
      <g id="g6552">
        <path id="path6546" class="cls-1" d="M72.92,72.07c-17.41.01-34.5,5.29-49.52,15.28,3.12-1.66,6.34-3.15,9.64-4.49,12.52-6.34,26.1-9.65,39.88-9.66h.06c13.81,0,27.41,3.31,39.95,9.66,3.3,1.33,6.52,2.82,9.64,4.49-15.04-10.01-32.15-15.28-49.58-15.28h-.06Z"/>
        <path id="path6548" class="cls-1" d="M72.87,72.7c-4.73,0-9.45.36-14.05,1.05-9.78,2.51-19.2,6.72-27.93,12.53,3.12-1.66,6.34-3.15,9.64-4.49,6.1-3.09,12.45-5.45,18.95-7.07-7.34,2.53-14.42,6.04-21.09,10.48,3.12-1.66,6.34-3.15,9.64-4.49,6.1-3.09,12.45-5.45,18.95-7.07-7.34,2.53-14.42,6.04-21.09,10.48,3.12-1.66,6.34-3.15,9.64-4.49,5.92-3,12.07-5.3,18.38-6.92-.31,0-.61,0-.92,0-.04,0-.07,0-.11,0h0ZM74.05,72.7c-7.19,2.52-14.12,5.97-20.67,10.32,3.12-1.66,6.34-3.15,9.64-4.49,4.61-2.33,9.36-4.25,14.21-5.75-1.06-.05-2.12-.08-3.18-.09ZM78.27,72.84c-6.02,2.38-11.85,5.41-17.39,9.1,3.12-1.66,6.34-3.15,9.64-4.49,3.37-1.71,6.81-3.18,10.32-4.44-.85-.07-1.71-.13-2.56-.17ZM82.41,73.16c-4.83,2.13-9.52,4.71-14.03,7.71,3.12-1.66,6.34-3.15,9.64-4.49,2.15-1.09,4.33-2.08,6.53-2.98-.71-.09-1.42-.17-2.13-.24ZM86.53,73.66c-3.65,1.79-7.21,3.83-10.65,6.13,3.12-1.66,6.34-3.15,9.64-4.49.93-.47,1.88-.93,2.82-1.36-.6-.1-1.2-.19-1.8-.28ZM90.61,74.34c-2.46,1.34-4.88,2.79-7.24,4.36,2.81-1.5,5.71-2.85,8.67-4.08-.47-.1-.95-.19-1.43-.28ZM94.68,75.21c-1.29.77-2.56,1.57-3.82,2.41.78-.42,1.57-.82,2.36-1.22.71-.35,1.42-.69,2.14-1.03-.23-.06-.45-.11-.68-.16Z"/>
        <path id="path6550" class="cls-1" d="M73.09,72.7c4.73,0,9.45.36,14.05,1.05,9.78,2.51,19.2,6.72,27.93,12.53-3.12-1.66-6.34-3.15-9.64-4.49-6.1-3.09-12.45-5.45-18.95-7.07,7.34,2.53,14.42,6.04,21.09,10.48-3.12-1.66-6.34-3.15-9.64-4.49-6.1-3.09-12.45-5.45-18.95-7.07,7.34,2.53,14.42,6.04,21.09,10.48-3.12-1.66-6.34-3.15-9.64-4.49-5.92-3-12.07-5.3-18.38-6.92.31,0,.61,0,.92,0,.04,0,.07,0,.11,0ZM71.91,72.7c7.19,2.52,14.12,5.97,20.67,10.32-3.12-1.66-6.34-3.15-9.64-4.49-4.61-2.33-9.36-4.25-14.21-5.75,1.06-.05,2.12-.08,3.18-.09ZM67.69,72.84c6.02,2.38,11.85,5.41,17.39,9.1-3.12-1.66-6.34-3.15-9.64-4.49-3.37-1.71-6.81-3.18-10.32-4.44.85-.07,1.71-.13,2.56-.17ZM63.56,73.16c4.83,2.13,9.52,4.71,14.03,7.71-3.12-1.66-6.34-3.15-9.64-4.49-2.15-1.09-4.33-2.08-6.53-2.98.71-.09,1.42-.17,2.13-.24ZM59.44,73.66c3.65,1.79,7.21,3.83,10.65,6.13-3.12-1.66-6.34-3.15-9.64-4.49-.93-.47-1.88-.93-2.82-1.36.6-.1,1.2-.19,1.8-.28ZM55.36,74.34c2.46,1.34,4.88,2.79,7.24,4.36-2.81-1.5-5.71-2.85-8.67-4.08.47-.1.95-.19,1.43-.28h0ZM51.28,75.21c1.29.77,2.56,1.57,3.82,2.41-.78-.42-1.57-.82-2.36-1.22-.71-.35-1.42-.69-2.14-1.03.23-.06.45-.11.68-.16Z"/>
      </g>
      <g id="g6602">
        <g id="g6574">
          <path id="path6554" class="cls-1" d="M108.55,112.28v-.27h-7.52v.27c1.05.33,1.77,1.18,1.77,2.06v3.42h-7.83v-3.42c0-.88.71-1.73,1.77-2.06v-.27h-7.52v.27c1.05.33,1.77,1.18,1.77,2.06v11.98c0,.88-.71,1.73-1.77,2.06v.27h7.52v-.27c-1.05-.33-1.77-1.18-1.77-2.06v-7.36h7.83v7.36c0,.88-.71,1.73-1.77,2.06v.27h7.52v-.27c-1.05-.33-1.77-1.18-1.77-2.06v-11.98c0-.88.71-1.73,1.77-2.06Z"/>
          <g id="g6564">
            <path id="path6556" class="cls-1" d="M34.89,112.02l-.17.27c.85.33,1.04,1.18.51,2.06l-8.73,14.27v2.58l.32-.53.47-.76,9.53-15.57c.54-.88,1.77-1.73,3.03-2.06l.17-.27h-5.11Z"/>
            <path id="path6558" class="cls-1" d="M33.45,118.47l-2.32,4.2,3.05,7.29.31.74,2.63,6.28c.36.86-.11,1.47-1.19,1.47l.11.27,2.87.77c1.4.46,2.79.96,4.18,1.45.69.24,1.39.48,2.08.63.69.15,1.39.22,2.01.12.55-.09,1.04-.31,1.34-.69.3-.38.39-.91.2-1.45-.13-.35-.37-.71-.7-.99-.33-.28-.74-.49-1.14-.55-.4-.07-.78,0-1.04.2-.25.18-.39.46-.39.77.12-.08.27-.12.43-.11.17,0,.35.05.51.13.19.09.36.23.49.39.13.16.22.33.27.5.07.24.06.47-.03.66-.09.19-.25.34-.46.43-.29.12-.65.12-1.02.06-.37-.06-.74-.19-1.1-.33-.14-.05-.27-.11-.4-.17-1.14-.65-2.09-1.56-2.41-2.31l-3.25-7.76-.59-1.41-4.43-10.57Z"/>
            <path id="path6560" class="cls-1" d="M22.7,112.02v.27c1.05.33,1.77,1.18,1.77,2.06v18.31c0,.88-.71,1.73-1.77,2.06v.27h7.52v-.27c-1.05-.33-1.77-1.18-1.77-2.06v-18.31c0-.88.71-1.73,1.77-2.06v-.27h-7.52Z"/>
            <path id="path6562" class="cls-1" d="M23.2,111.92c-.32,0-.65,0-.97.04-.64.06-1.29.22-1.85.52-.5.27-.94.68-1.2,1.18-.26.5-.32,1.1-.11,1.62.13.34.37.64.69.83.32.19.7.28,1.07.22.37-.06.72-.26.95-.55.22-.27.33-.61.32-.96-.1.12-.24.21-.39.26-.15.05-.32.06-.48.03-.18-.04-.34-.13-.47-.25-.13-.12-.22-.28-.28-.45-.08-.23-.08-.49,0-.72.07-.23.22-.45.4-.61.26-.22.59-.34.94-.39.34-.05.69-.04,1.03-.01,1.02.08,2.02.25,3,.52l.04-1.16c-.58-.03-1.16-.06-1.73-.09-.32-.02-.65-.03-.97-.03h0Z"/>
          </g>
          <path id="path6566" class="cls-1" d="M78.76,128.94c3.78,0,5.35-1.13,6.44-1.13.26,0,.65.11.85.19l.17-.16c-.23-.41-.23-1.18-.23-2.53v-.68c0-.88.74-1.73,1.82-2.06v-.27h-7.18v.27c1.05.33,1.77,1.18,1.77,2.06v1.12c0,1.24-.85,1.98-3.16,1.98-3.56,0-6.41-.96-6.41-7.48s3.5-7.31,6.63-7.31,5.15,1.87,6.58,4.45h.23v-3.9c-1.08-.52-3.33-1.76-6.89-1.76-4.44,0-11.11.91-11.11,8.47s6.69,8.74,10.48,8.74Z"/>
          <path id="path6568" class="cls-1" d="M52.47,112v.27c.83.33,1.42.58,1.42,1.98v8.02l-8.97-10.28h-5.21v.27c.83.33,1.42,1.18,1.42,2.06v12.01c0,1.46-.6,1.7-1.42,2.03v.27h4.27v-.27c-.83-.33-1.42-.58-1.42-2.03v-10.61l10.91,12.92h1.85v-14.4c0-1.4.6-1.65,1.42-1.98v-.27h-4.27Z"/>
          <path id="path6570" class="cls-1" d="M59.07,128.66h7.52v-.27c-1.05-.33-1.77-1.18-1.77-2.06v-11.98c0-.88.71-1.73,1.77-2.06v-.27h-7.52v.27c1.05.33,1.77,1.18,1.77,2.06v11.98c0,.88-.71,1.73-1.77,2.06v.27Z"/>
          <path id="path6572" class="cls-1" d="M127.16,112h-16.69l-.68,3.77h.34c.71-1.29,1.42-2.56,4.13-2.56h2.56v13.11c0,.88-.71,1.73-1.77,2.06v.27h7.52v-.27c-1.05-.33-1.77-1.18-1.77-2.06v-13.11h2.56c2.71,0,3.42,1.26,4.13,2.56h.34l-.68-3.77Z"/>
        </g>
        <g id="g6600">
          <rect id="rect6576" class="cls-1" x="58.68" y="103.15" width="11.65" height="1.2"/>
          <path id="path6578" class="cls-1" d="M22.47,107.14h14.47l.88-3.77h-.28c-.68,1.07-2.22,2.56-4.33,2.56h-4.98v-13.22c0-.88.71-1.73,1.77-2.06v-.27h-7.52v.27c1.05.33,1.77,1.18,1.77,2.06v12.09c0,.88-.71,1.73-1.77,2.06v.27Z"/>
          <path id="path6580" class="cls-1" d="M63.96,90.49l-6.32,14.51c-.34.8-1.54,1.54-2.36,1.87v.28h4.76v-.28c-1.05-.33-1.17-1.07-.83-1.87l1.42-3.27,3.76-8.58,3.67,8.58,1.42,3.27c.37.8.14,1.54-.97,1.87v.28h7.6v-.28c-.8-.33-1.97-1.07-2.31-1.87l-6.34-14.51h-3.51Z"/>
          <path id="path6582" class="cls-1" d="M91.02,90.49h-16.69l-.68,3.77h.34c.71-1.29,1.42-2.56,4.13-2.56h2.56v13.11c0,.88-.71,1.73-1.77,2.06v.27h7.52v-.27c-1.05-.33-1.77-1.18-1.77-2.06v-13.11h2.56c2.71,0,3.42,1.26,4.13,2.56h.34l-.68-3.77Z"/>
          <path id="path6584" class="cls-1" d="M93.99,107.14h7.52v-.27c-1.05-.33-1.77-1.18-1.77-2.06v-11.98c0-.88.71-1.73,1.77-2.06v-.27h-7.52v.27c1.05.33,1.77,1.18,1.77,2.06v11.98c0,.88-.71,1.73-1.77,2.06v.27Z"/>
          <path id="path6586" class="cls-1" d="M116.67,90.49v.27c.83.33,1.42.58,1.42,1.98v8.02l-8.97-10.28h-5.21v.27c.83.33,1.42,1.18,1.42,2.06v12.01c0,1.46-.6,1.7-1.42,2.03v.27h4.27v-.27c-.83-.33-1.42-.58-1.42-2.03v-10.61l10.91,12.92h1.85v-14.4c0-1.4.6-1.65,1.42-1.98v-.27h-4.27Z"/>
          <g id="g6594">
            <path id="path6588" class="cls-1" d="M13.2,85.68l-5.75,3.98v.27c1.05-.4,1.77-.04,1.77.84v16.67c0,.77-.55,1.74-1.4,2.46-.11.06-.21.13-.33.19-.3.16-.61.31-.95.4-.33.09-.69.11-1.02,0-.24-.07-.46-.21-.62-.4-.16-.19-.27-.42-.3-.66-.02-.17,0-.35.06-.52.07-.16.18-.31.32-.42.13-.09.29-.15.45-.16.16-.01.32.01.47.08-.14-.32-.39-.58-.7-.75-.33-.17-.73-.22-1.1-.13-.36.09-.68.32-.89.62-.21.3-.3.67-.28,1.03.03.56.34,1.08.79,1.44.44.36,1.01.55,1.59.6.64.06,1.3-.05,1.91-.25.61-.2,1.2-.47,1.77-.76,1.16-.57,2.32-1.16,3.49-1.71l2.49-.95v-.28c-1.05.07-1.77-.51-1.77-1.39v-20.24Z"/>
            <path id="path6590" class="cls-1" d="M10.97,93.49v1.21h4.64c2.37,0,3.14,1.37,3.57,2.28.02.06.05.12.07.18.11.31.21.63.25.97.03.33,0,.68-.16.97-.11.22-.29.41-.51.53-.22.13-.47.19-.72.18-.18,0-.36-.06-.52-.14-.16-.09-.29-.22-.37-.38-.07-.14-.11-.3-.1-.45.01-.16.07-.31.16-.43-.35.08-.66.27-.88.54-.23.29-.35.66-.31,1.03.04.36.22.7.49.95.27.25.64.4,1.01.43.57.06,1.16-.15,1.6-.52.44-.37.73-.88.88-1.41.72-2.15-.64-4.52.65-5.93h-9.76Z"/>
            <path id="path6592" class="cls-1" d="M10.39,98.61c-.51,1.13-1.47,2.07-2.65,2.56-1.17.49-2.54.54-3.75.12-1.49-.52-2.68-1.71-3.33-3.11-.65-1.4-.79-2.98-.58-4.5.43-3.17,2.34-6.08,4.99-8,2.73-1.97,6.12-2.9,9.5-3.39,3.61-.52,7.28-.57,10.9-.16-.82,1.59-1.59,3.21-2.32,4.85-.19.43-.38.87-.48,1.33-.09.46-.09.95.1,1.38.22.51.71.91,1.27,1.04-.38.2-.81.31-1.24.31-.84,0-1.66-.42-2.13-1.09-.29-.42-.44-.92-.48-1.42-.04-.5.03-1.01.16-1.5.1-.37.23-.74.29-1.12.06-.38.05-.78-.13-1.13-.2-.39-.59-.66-1.01-.81-.42-.15-.87-.2-1.32-.23-2.97-.23-6.02,0-8.82.96-1.47.51-2.87,1.23-4.07,2.2-1.2.97-2.19,2.19-2.78,3.59-.45,1.06-.67,2.22-.6,3.36s.41,2.28,1.03,3.26c.55.88,1.34,1.63,2.31,2.06.48.21,1.01.33,1.54.34.53.01,1.07-.09,1.55-.32.58-.27,1.06-.71,1.38-1.24.32-.54.46-1.17.4-1.78l1.56.44.13,1.51-1.43.47Z"/>
          </g>
          <path id="path6596" class="cls-1" d="M132.68,107.42c3.78,0,5.35-1.13,6.44-1.13.26,0,.65.11.85.19l.17-.16c-.23-.41-.23-1.18-.23-2.53v-.68c0-.88.74-1.73,1.82-2.06v-.27h-7.18v.27c1.05.33,1.77,1.18,1.77,2.06v1.12c0,1.24-.85,1.98-3.16,1.98-3.56,0-6.41-.96-6.41-7.48s3.5-7.31,6.63-7.31,5.15,1.87,6.58,4.45h.23v-3.9c-1.08-.52-3.33-1.76-6.89-1.76-4.44,0-11.11.91-11.11,8.47s6.69,8.74,10.48,8.74Z"/>
          <path id="path6598" class="cls-1" d="M45.91,90.23c-4.38.14-10.12,1.41-10.12,8.44,0,7.57,6.29,8.67,10.12,8.73,3.83-.06,10.12-1.16,10.12-8.73,0-7.03-5.74-8.29-10.12-8.44ZM45.91,91.45c2.81.2,5.57,1.42,5.57,7.27s-2.41,7.27-5.57,7.44c-3.15-.17-5.57-1.45-5.57-7.44s2.76-7.07,5.57-7.27Z"/>
        </g>
      </g>
    </g>
    <g>
      <g>
        <polygon class="cls-1" points="402.75 66.3 402.75 73.73 311.52 73.73 311.52 58.99 306.43 58.99 306.43 73.73 215.2 73.73 215.2 66.3 210.11 66.3 210.11 86.24 215.2 86.24 215.2 78.82 306.43 78.82 306.43 93.56 311.52 93.56 311.52 78.82 402.75 78.82 402.75 86.24 407.84 86.24 407.84 66.3 402.75 66.3"/>
        <g>
          <path class="cls-1" d="M244.09,97.64h-.39s-17.31,0-17.31,0v3.35c0,.96.78,1.74,1.74,1.74h.1v6.38h-1.84v3.35c0,.96.78,1.74,1.74,1.74h.1v6.38h-1.85l-1.18,5.09h18.5s.39,0,.39,0c4.57,0,8.28-3.71,8.28-8.28,0-2.23-.89-4.25-2.32-5.74,1.43-1.49,2.32-3.51,2.32-5.73,0-4.57-3.71-8.28-8.28-8.28ZM244.09,120.58h-.39s-10.37,0-10.37,0v-6.38h10.77c1.76,0,3.19,1.43,3.19,3.19s-1.43,3.19-3.19,3.19ZM244.09,109.11h-10.77v-6.38h10.77c1.76,0,3.19,1.43,3.19,3.19s-1.43,3.19-3.19,3.19Z"/>
          <path class="cls-1" d="M391.57,102.73l1.18-5.09h-28.29s0,3.56,0,3.56c0,.85.69,1.54,1.54,1.54h9.34v17.85h-1.25l-1.18,5.09h2.43s5.09,0,5.09,0h0s2.43,0,2.43,0v-3.35c0-.96-.78-1.74-1.74-1.74h-.69v-17.85h11.14Z"/>
          <path class="cls-1" d="M326.33,120.58h-14.82v-17.85h1.84l1.18-5.09h-9.96v3.35c0,.96.78,1.74,1.74,1.74h.1v17.85h-1.85l-1.18,5.09h24.67v-3.37c0-.95-.77-1.72-1.72-1.72Z"/>
          <path class="cls-1" d="M357.79,102.73l1.18-5.09h-25.65s-10.79,0-10.79,0l-1.18,5.09h13.82v6.38h-1.84v3.35c0,.96.78,1.74,1.74,1.74h.1v6.38h-1.85l-1.18,5.09h26.83v-3.35c0-.96-.78-1.74-1.74-1.74h-16.97v-6.38h15.41l1.18-5.09h-16.59v-6.38h17.53Z"/>
          <path class="cls-1" d="M299.57,120.58h-8.51v-17.85h1.84l1.18-5.09h-9.96v3.35c0,.96.78,1.74,1.74,1.74h.1v17.85h-1.85l-1.18,5.09h18.36v-3.37c0-.95-.77-1.72-1.72-1.72Z"/>
          <path class="cls-1" d="M266.88,97.64l1.18,5.09h7.86v15.79c0,1.7-3.77,2.06-6.1,2.06s-6.1-.36-6.1-2.06v-20.88h-11.35l1.18,5.09h5.08v16.18c0,4.15,4.7,6.76,11.19,6.76s11.19-2.71,11.19-6.76v-21.28h-14.13Z"/>
        </g>
        <g>
          <polygon class="cls-1" points="307.16 26.24 308.34 31.33 316.65 31.33 308.98 47.94 298.95 26.24 284.69 26.24 285.87 31.33 295.71 31.33 306.4 54.26 306.4 54.27 311.52 54.27 311.52 54.27 311.54 54.27 324.62 26.24 307.16 26.24"/>
          <path class="cls-1" d="M252.37,49.57v-3.9c0-2.52-1.66-4.74-4.09-5.45l-15.69-4.57c-.81-.24-1.36-.97-1.36-1.81v-1.16c0-.75.61-1.35,1.35-1.35h14.7v1.12c0,.94.65,1.75,1.56,1.96l3.53.82v-8.99h-21.53c-2.6,0-4.7,2.1-4.7,4.7v3.88c0,2.51,1.69,4.75,4.1,5.45l15.68,4.52c.8.23,1.37.98,1.37,1.82v1.21c0,.75-.61,1.35-1.35,1.35h-14.7v-1.12c0-.94-.65-1.75-1.56-1.96l-3.53-.82v8.99h21.53c2.6,0,4.7-2.1,4.7-4.7Z"/>
          <path class="cls-1" d="M296.64,50.9c0-.95-.77-1.72-1.72-1.72h-14.82v-17.85h1.84l1.18-5.09h-9.96s0,3.35,0,3.35c0,.96.78,1.74,1.74,1.74h.1v17.85h-1.85l-1.18,5.09h24.67v-3.37Z"/>
          <path class="cls-1" d="M365.47,49.18h-1.85l-1.18,5.09h9.96v-3.35c0-.96-.78-1.74-1.74-1.74h-.09v-6.38h5.28c5.04,11.13,14.44,11.47,15.53,11.47h.44v-5.08h-.38c-5.12-.17-8.35-3.81-10-6.39h2.49v-.02c4.38-.21,7.89-3.83,7.89-8.26s-3.71-8.28-8.28-8.28h-.39s-19.51,0-19.51,0v3.35c0,.96.78,1.74,1.74,1.74h.1v6.38h-6.32l-1.18,5.09h7.5v6.38ZM370.57,31.33h12.97c1.76,0,3.18,1.43,3.18,3.19s-1.43,3.19-3.19,3.19h-12.97v-6.38Z"/>
          <path class="cls-1" d="M267.6,50.92c0-.96-.78-1.74-1.74-1.74h-.09v-17.85h1.84l1.18-5.09h-3.02s-5.09,0-5.09,0h-1.84v3.35c0,.96.78,1.74,1.74,1.74h.1v17.85h-5.08l-1.18,5.09h13.18s0-3.35,0-3.35Z"/>
          <path class="cls-1" d="M356.59,50.92c0-.96-.78-1.74-1.74-1.74h-16.97v-6.38h15.41s1.18-5.09,1.18-5.09h-16.59v-6.38h17.53l1.18-5.09h-25.65s0,3.35,0,3.35c0,.96.78,1.74,1.74,1.74h.1v6.38h-1.84v3.35c0,.96.78,1.74,1.74,1.74h.1v6.38h-1.85l-1.18,5.09h26.84v-3.35Z"/>
        </g>
      </g>
      <g>
        <path class="cls-1" d="M403.42,35.91l-1.56-3.12h-1.4v3.12h-1.12v-7.4h2.87c1.4,0,2.3.9,2.3,2.16,0,1.06-.64,1.73-1.47,1.96l1.7,3.27h-1.31ZM402.12,29.52h-1.66v2.32h1.66c.75,0,1.26-.43,1.26-1.15s-.51-1.16-1.26-1.16Z"/>
        <path class="cls-1" d="M401.78,38.37c-3.34,0-6.06-2.72-6.06-6.06s2.72-6.06,6.06-6.06,6.06,2.72,6.06,6.06-2.72,6.06-6.06,6.06ZM401.78,27.19c-2.82,0-5.11,2.29-5.11,5.11s2.29,5.11,5.11,5.11,5.11-2.29,5.11-5.11-2.29-5.11-5.11-5.11Z"/>
      </g>
    </g>
    <line class="cls-2" x1="176.12" y1="17.47" x2="176.12" y2="133.13"/>
  </g>
</svg>